<svg width="362" height="219" viewBox="0 0 362 219" fill="none" xmlns="http://www.w3.org/2000/svg">
    <path d="M13.8 103L13.416 3.672H0.872001V0.599998H38.12V3.672H24.168L24.04 89.816H25.576L59.368 10.072L56.936 3.672H47.976V0.599998H79.592V3.672H73.32L62.952 10.072L23.4 103H13.8ZM59.963 51.928L76.731 35.16H97.979L107.451 52.952L105.531 62.04H105.403V62.168H67.259L62.651 84.184L68.923 95.32H87.483L97.339 84.696L100.539 69.72H103.739L100.283 85.848L84.411 103H62.907L52.795 85.208L59.963 51.928ZM96.571 58.968L97.723 53.464L93.115 38.36H80.315L68.923 54.488L68.027 58.968H96.571ZM128.197 44.504H120.133L115.013 68.312H111.813L116.933 44.12L127.941 33.24L136.645 50.008L127.429 93.528H135.493L140.613 69.72H143.813L138.693 93.912L127.557 104.792L118.853 88.024L128.197 44.504ZM147.141 10.968L144.453 24.024H131.397L134.085 10.968H147.141ZM152.644 119.128L157.764 125.272H178.884L187.716 117.848L190.02 107.096L186.308 102.872H147.908L141.764 94.168L160.708 76.248L160.964 75.352L155.332 67.8L159.556 48.216L175.684 35.16H194.5L194.628 35.416L206.276 21.336H217.924L215.492 32.856H204.1L204.996 28.504H203.588L196.164 37.464L204.74 48.984L200.516 68.568L184.516 81.624H165.7L163.012 77.912L151.62 88.792L150.468 94.296H191.556L198.98 103.384L195.396 120.664L184.772 128.6H156.1L148.42 119.128L150.852 107.608H162.244L159.812 119.128H152.644ZM170.692 78.424H181.06L191.428 66.264L195.012 49.752L189.508 38.36H179.14L168.644 50.52L165.06 67.032L170.692 78.424ZM215.463 51.928L232.231 35.16H253.479L262.951 52.952L261.031 62.04H260.903V62.168H222.759L218.151 84.184L224.423 95.32H242.983L252.839 84.696L256.039 69.72H259.239L255.783 85.848L239.911 103H218.407L208.295 85.208L215.463 51.928ZM252.071 58.968L253.223 53.464L248.615 38.36H235.815L224.423 54.488L223.527 58.968H252.071ZM284.918 3.672H274.678V0.599998H295.158L275.318 93.528H283.382L288.502 69.72H291.702L286.582 93.912L275.446 104.792L266.742 88.024L284.918 3.672Z" fill="white"/>
    <path d="M26.369 203.944L23.553 217H10.497L13.313 203.944H26.369ZM85.262 176.552H82.19L85.134 162.6L77.07 152.36H64.654L58.126 160.296L56.846 166.568L83.342 194.6L80.398 208.296L67.854 217L37.134 217.128L42.894 189.736H45.966L43.022 203.688L51.086 213.928L64.91 213.8L72.078 205.864L73.614 198.952L46.99 170.92L49.806 157.864L61.07 149.16H91.022L85.262 176.552ZM93.405 209.448L105.565 152.36H99.549L100.189 149.16H106.205L114.397 140.84L117.085 128.04H120.285L115.805 149.16H129.885L129.245 152.36H115.165L103.133 208.808H113.757L119.133 183.72H122.333L116.957 209.192L103.773 218.792L93.405 209.448ZM178.843 207.528H186.907L191.899 183.72H195.099L189.979 207.912L179.099 218.792L171.675 201L156.443 217H142.235L136.731 202.408L145.947 158.504H137.883L132.763 182.312H129.563L134.683 158.12L145.691 147.24L154.395 164.008L146.331 201.896L150.555 213.8H155.931L171.291 197.672L181.659 149.16H191.259L178.843 207.528ZM255.814 207.528L260.934 183.72H264.134L259.014 207.912L248.006 218.792L241.094 202.024L229.702 217H211.014L201.67 199.208L208.71 165.928L225.478 149.16H244.166L248.006 161.448L257.35 117.672H247.878V114.6H267.59L247.75 207.528H255.814ZM216.006 213.8H228.806L240.07 198.824L242.63 186.664L246.598 167.976L241.862 152.36H229.062L217.67 168.488L211.27 198.696L216.006 213.8ZM286.947 158.504H278.883L273.763 182.312H270.563L275.683 158.12L286.691 147.24L295.395 164.008L286.179 207.528H294.243L299.363 183.72H302.563L297.443 207.912L286.307 218.792L277.603 202.024L286.947 158.504ZM305.891 124.968L303.203 138.024H290.147L292.835 124.968H305.891ZM307.17 199.208L314.338 165.928L331.106 149.16H352.354L361.826 166.952L354.658 200.232L338.018 217H316.77L307.17 199.208ZM321.634 213.8H334.434L345.698 197.672L352.098 167.464L347.49 152.36H334.69L323.298 168.488L316.898 198.696L321.634 213.8Z" fill="white" fill-opacity="0.5"/>
</svg>
