<svg width="34" height="38" viewBox="0 0 34 38" fill="none" xmlns="http://www.w3.org/2000/svg">
    <path d="M21.5337 16.4101C22.4702 15.8227 23.2798 15.063 23.9188 14.1717C24.8968 12.811 25.4711 11.1509 25.4711 9.35706C25.4711 9.20738 25.4665 9.0577 25.4596 8.90803C25.2266 4.58549 21.649 1.13154 17.2249 1.00454C17.2595 1.00227 17.2964 1.00454 17.331 1.00454C23.6558 1.17009 28.8873 5.64458 30.1029 11.5501C30.2782 12.3983 30.3704 13.2782 30.3704 14.1785C30.3704 15.0811 30.2782 15.9633 30.1029 16.8161C28.7696 15.9611 27.1757 15.4644 25.4665 15.4644C25.2082 15.4644 24.9521 15.4757 24.6984 15.4984C23.5658 15.5982 22.4956 15.9157 21.5337 16.4101ZM21.5337 16.4101C21.3307 16.5371 21.1208 16.6573 20.904 16.7684M21.5337 16.4101C21.3169 16.5212 21.107 16.6414 20.904 16.7684M20.904 16.7684C20.4265 17.0134 19.9214 17.2152 19.3954 17.3694M20.904 16.7684C20.4427 17.0564 20.0136 17.3876 19.6192 17.7527M19.3954 17.3694C18.8649 16.6074 17.9746 16.1085 16.9666 16.1085C15.9585 16.1085 15.0682 16.6051 14.54 17.3649M19.3954 17.3694C18.6273 17.5939 17.8131 17.7141 16.9712 17.7141C16.1292 17.7141 15.3104 17.5939 14.54 17.3649M14.54 17.3649H14.5377C14.0233 17.2152 13.5274 17.0179 13.0591 16.7798M13.0591 16.7798C13.0568 16.7798 13.0545 16.7775 13.0522 16.7752M13.0591 16.7798C13.5089 17.0632 13.9287 17.3853 14.3139 17.7436M13.0522 16.7752C12.8284 16.6618 12.6093 16.5371 12.3971 16.4033M13.0522 16.7752C12.84 16.6414 12.6208 16.5167 12.3971 16.4033M12.3971 16.4033C12.3948 16.401 12.3925 16.401 12.3902 16.3988M12.3902 16.3988C11.4606 15.8114 10.6533 15.0517 10.019 14.1649C9.04325 12.8065 8.4712 11.1487 8.4712 9.35706C8.4712 9.20511 8.47582 9.05544 8.48504 8.90576C8.71801 4.58095 12.2956 1.12927 16.722 1.00454M12.3902 16.3988C11.4306 15.9089 10.365 15.5959 9.23701 15.4984C8.98789 15.4757 8.73416 15.4644 8.47812 15.4644C6.76198 15.4644 5.16579 15.9633 3.83025 16.8229C3.65263 15.9701 3.56037 15.0834 3.56037 14.1785C3.56037 13.2737 3.65263 12.4005 3.82794 11.5523C5.04123 5.64684 10.275 1.17009 16.6021 1.00454H16.6206C16.6436 1.00227 16.6667 1.00227 16.6898 1.00227M16.9735 24.1186C16.9758 24.021 16.9781 23.9213 16.9781 23.8215C16.9781 23.7217 16.9758 23.6242 16.9735 23.5244M16.9735 24.1186V24.1299M16.9735 24.1186C16.9689 24.021 16.9666 23.9213 16.9666 23.8215C16.9666 23.7217 16.9689 23.6242 16.9735 23.5244M16.9735 24.1299C16.9296 25.2706 16.6552 26.3524 16.1915 27.3344C15.3911 29.0375 14.021 30.4277 12.3256 31.2759C13.6611 32.4416 15.2343 33.3487 16.9666 33.9157M16.9735 24.1299C17.015 25.2706 17.2895 26.3547 17.7508 27.3344C18.5512 29.033 19.9167 30.4232 21.6098 31.2714C20.2743 32.4393 18.6988 33.3465 16.9666 33.9157M14.3139 17.7436C14.1271 18.1246 14.0233 18.551 14.0233 19C14.0233 20.5263 15.225 21.7759 16.7497 21.8847M14.3139 17.7436C15.4972 18.8435 16.3599 20.2745 16.7497 21.8847M16.7497 21.8847C16.8766 22.4086 16.9504 22.9529 16.9735 23.5108M16.9735 23.5108V23.5244M16.9735 23.5108C16.9919 22.9529 17.0704 22.4086 17.1972 21.8824M17.1972 21.8824C18.7127 21.7691 19.9075 20.5217 19.9075 19C19.9075 18.5532 19.8037 18.1314 19.6192 17.7527M17.1972 21.8824C17.5847 20.2768 18.4428 18.8526 19.6192 17.7527M33 27.695C32.9493 27.788 32.8962 27.8809 32.8431 27.9739C32.8408 27.9762 32.8408 27.9785 32.8408 27.9807C32.7855 28.0692 32.7324 28.1599 32.6771 28.2483M33 27.695C32.9562 27.7743 32.91 27.8537 32.8639 27.9308C32.8408 27.9717 32.8178 28.0102 32.7924 28.051M33 27.695C32.9493 27.788 32.7324 28.1599 32.6771 28.2483M33 27.695C32.9562 27.7743 32.8178 28.0102 32.7924 28.051M32.6771 28.2483C32.7163 28.1826 32.7555 28.1168 32.7924 28.051M32.6771 28.2483L32.601 28.3663C32.5894 28.3867 32.5779 28.4048 32.5664 28.4252C32.5456 28.4547 32.5271 28.4865 32.5064 28.5159M32.5064 28.5159C29.2748 33.6118 23.5243 37 16.9666 37C10.4088 37 4.47841 33.5052 1.27449 28.2778M32.5064 28.5159C30.1236 32.1717 25.9578 34.5915 21.2154 34.5915C19.7299 34.5915 18.3021 34.3534 16.9666 33.9157M1.27449 28.2778C3.62726 32.0651 7.87378 34.5915 12.7177 34.5915C14.2032 34.5915 15.631 34.3534 16.9666 33.9157M1.27449 28.2778C1.23066 28.2098 1.18914 28.1395 1.14993 28.0714M16.6898 1.00227C16.699 1.00454 16.7105 1.00454 16.722 1.00454M16.6898 1.00227C16.6898 1.00227 16.7105 1.00454 16.722 1.00454M16.6898 1.00227H16.7336C16.729 1.00227 16.7267 1.00227 16.722 1.00454M1.25834 28.2325C1.25142 28.2257 1.24681 28.2188 1.2445 28.212M1.2445 28.212C1.15916 28.0805 1.07843 27.9376 1 27.7993C1.02307 27.8469 1.04613 27.8923 1.07151 27.9399C1.09688 27.983 1.12225 28.0284 1.14993 28.0714M1.2445 28.212C1.2099 28.1667 1.17992 28.1191 1.14993 28.0714M19.9144 3.89379C19.9144 5.49036 18.5973 6.78758 16.9712 6.78758C15.345 6.78758 14.0302 5.49036 14.0302 3.89379C14.0302 2.29722 15.3358 1.01134 16.9504 1H16.9758C18.5997 1.00227 19.9144 2.29948 19.9144 3.89379Z" stroke="white" stroke-width="0.75" stroke-miterlimit="16"/>
</svg>
