<svg width="32" height="36" viewBox="0 0 32 36" fill="none" xmlns="http://www.w3.org/2000/svg">
<g clip-path="url(#clip0_556_312)">
<path d="M31.9997 26.6951C31.949 26.7881 31.8959 26.881 31.8428 26.974C31.8405 26.9763 31.8405 26.9786 31.8405 26.9808C31.7852 27.0693 31.7321 27.16 31.6768 27.2484C31.716 27.1827 31.7552 27.1169 31.7921 27.0511C31.8175 27.0103 31.8405 26.9718 31.8636 26.9309C31.9097 26.8538 31.9559 26.7744 31.9997 26.6951Z" fill="black"/>
<path d="M31.5063 27.5159C28.2747 32.6118 22.5242 36 15.9665 36C9.4087 36 3.47833 32.5052 0.274414 27.2778C2.62718 31.0651 6.8737 33.5915 11.7176 33.5915C13.2031 33.5915 14.6309 33.3534 15.9665 32.9157C17.302 33.3534 18.7298 33.5915 20.2153 33.5915C24.9577 33.5915 29.1235 31.1717 31.5063 27.5159Z" fill="black"/>
<path d="M11.3904 15.3987C10.4308 14.9088 9.36513 14.5958 8.23719 14.4983C7.98807 14.4756 7.73434 14.4643 7.4783 14.4643C5.76216 14.4643 4.16597 14.9632 2.83043 15.8228C2.65281 14.97 2.56055 14.0833 2.56055 13.1784C2.56055 12.2736 2.65281 11.4004 2.82812 10.5522C4.04141 4.64677 9.27517 0.170018 15.6023 0.00446513H15.6208C15.6438 0.00219727 15.6669 0.00219727 15.69 0.00219727C15.6992 0.00446513 15.7107 0.00446513 15.7222 0.00446513C11.2958 0.129197 7.71819 3.58088 7.48522 7.90569C7.476 8.05537 7.47138 8.20504 7.47138 8.35699C7.47138 10.1486 8.04343 11.8064 9.01914 13.1648C9.65346 14.0516 10.4608 14.8113 11.3904 15.3987Z" fill="black"/>
<path d="M29.3701 13.1784C29.3701 14.081 29.2779 14.9632 29.1026 15.816C27.7693 14.961 26.1754 14.4643 24.4662 14.4643C24.2079 14.4643 23.9518 14.4756 23.6981 14.4983C22.5655 14.5981 21.4953 14.9156 20.5334 15.41C21.4699 14.8226 22.2795 14.0629 22.9185 13.1716C23.8965 11.8109 24.4708 10.1508 24.4708 8.35695C24.4708 8.20727 24.4662 8.05759 24.4593 7.90792C24.2263 3.58538 20.6487 0.131426 16.2246 0.00442591C16.2592 0.00215805 16.2961 0.00442591 16.3307 0.00442591C22.6555 0.169979 27.887 4.64447 29.1026 10.55C29.2779 11.3982 29.3701 12.2781 29.3701 13.1784Z" fill="black"/>
<path d="M20.6094 30.2714C19.2739 31.4393 17.6984 32.3465 15.9662 32.9157C14.2339 32.3487 12.6607 31.4416 11.3252 30.2759C13.0206 29.4277 14.3907 28.0375 15.1911 26.3344C15.6548 25.3524 15.9292 24.2706 15.9731 23.1299C16.0146 24.2706 16.2891 25.3547 16.7504 26.3344C17.5508 28.033 18.9163 29.4232 20.6094 30.2714Z" fill="black"/>
<path d="M18.9145 2.89379C18.9145 4.49036 17.5974 5.78758 15.9713 5.78758C14.3451 5.78758 13.0303 4.49036 13.0303 2.89379C13.0303 1.29722 14.3359 0.0113393 15.9505 0H15.9759C17.5998 0.00226786 18.9145 1.29948 18.9145 2.89379Z" fill="black"/>
<path d="M0.244504 27.212C0.209904 27.1667 0.179918 27.1191 0.149932 27.0714C0.122252 27.0284 0.0968788 26.983 0.0715058 26.9399C0.0461328 26.8923 0.0230664 26.8469 0 26.7993C0.0784257 26.9376 0.159158 27.0805 0.244504 27.212Z" fill="black"/>
<path d="M15.7498 20.8848C14.2251 20.776 13.0234 19.5264 13.0234 18.0001C13.0234 17.5511 13.1272 17.1247 13.314 16.7437C14.4973 17.8436 15.36 19.2746 15.7498 20.8848Z" fill="black"/>
<path d="M18.3954 16.3693C17.6273 16.5938 16.8131 16.714 15.9712 16.714C15.1292 16.714 14.3104 16.5938 13.54 16.3648C14.0682 15.605 14.9585 15.1084 15.9666 15.1084C16.9746 15.1084 17.8649 15.6073 18.3954 16.3693Z" fill="black"/>
<path d="M18.9076 18C18.9076 19.5217 17.7128 20.7691 16.1973 20.8824C16.5848 19.2768 17.4429 17.8526 18.6193 16.7527C18.8038 17.1314 18.9076 17.5532 18.9076 18Z" fill="black"/>
</g>
<defs>
<clipPath id="clip0_556_312">
<rect width="32" height="36" fill="white"/>
</clipPath>
</defs>
</svg>
