<svg width="32" height="36" viewBox="0 0 32 36" fill="none" xmlns="http://www.w3.org/2000/svg">
<path d="M32 26.695C31.9493 26.788 31.8962 26.8809 31.8431 26.9739C31.8408 26.9762 31.8408 26.9785 31.8408 26.9807C31.7855 27.0692 31.7324 27.1599 31.6771 27.2483C31.7163 27.1826 31.7555 27.1168 31.7924 27.051C31.8178 27.0102 31.8408 26.9717 31.8639 26.9308C31.91 26.8537 31.9562 26.7743 32 26.695Z" fill="#FFF"/>
<path d="M31.5064 27.5159C28.2748 32.6118 22.5243 36 15.9666 36C9.40878 36 3.47841 32.5052 0.27449 27.2778C2.62726 31.0651 6.87378 33.5915 11.7177 33.5915C13.2032 33.5915 14.631 33.3534 15.9666 32.9157C17.3021 33.3534 18.7299 33.5915 20.2154 33.5915C24.9578 33.5915 29.1236 31.1717 31.5064 27.5159Z" fill="#FFF"/>
<path d="M11.3902 15.3988C10.4306 14.9089 9.36495 14.5959 8.23701 14.4984C7.98789 14.4757 7.73416 14.4644 7.47812 14.4644C5.76198 14.4644 4.16579 14.9633 2.83025 15.8229C2.65263 14.9701 2.56037 14.0834 2.56037 13.1785C2.56037 12.2737 2.65263 11.4005 2.82794 10.5523C4.04123 4.64684 9.27499 0.170089 15.6021 0.00453572H15.6206C15.6436 0.00226786 15.6667 0.00226786 15.6898 0.00226786C15.699 0.00453572 15.7105 0.00453572 15.722 0.00453572C11.2956 0.129268 7.71801 3.58095 7.48504 7.90576C7.47582 8.05544 7.4712 8.20511 7.4712 8.35706C7.4712 10.1487 8.04325 11.8065 9.01896 13.1649C9.65328 14.0517 10.4606 14.8114 11.3902 15.3988Z" fill="#FFF"/>
<path d="M29.3704 13.1785C29.3704 14.0811 29.2782 14.9633 29.1029 15.8161C27.7696 14.9611 26.1757 14.4644 24.4665 14.4644C24.2082 14.4644 23.9521 14.4757 23.6984 14.4984C22.5658 14.5982 21.4956 14.9157 20.5337 15.4101C21.4702 14.8227 22.2798 14.063 22.9188 13.1717C23.8968 11.811 24.4711 10.1509 24.4711 8.35706C24.4711 8.20738 24.4665 8.0577 24.4596 7.90803C24.2266 3.58549 20.649 0.131536 16.2249 0.00453572C16.2595 0.00226786 16.2964 0.00453572 16.331 0.00453572C22.6558 0.170089 27.8873 4.64458 29.1029 10.5501C29.2782 11.3983 29.3704 12.2782 29.3704 13.1785Z" fill="#FFF"/>
<path d="M20.6098 30.2714C19.2743 31.4393 17.6988 32.3465 15.9666 32.9157C14.2343 32.3487 12.6611 31.4416 11.3256 30.2759C13.021 29.4277 14.3911 28.0375 15.1915 26.3344C15.6552 25.3524 15.9296 24.2706 15.9735 23.1299C16.015 24.2706 16.2895 25.3547 16.7508 26.3344C17.5512 28.033 18.9167 29.4232 20.6098 30.2714Z" fill="#FFF"/>
<path d="M18.9144 2.89379C18.9144 4.49036 17.5973 5.78758 15.9712 5.78758C14.345 5.78758 13.0302 4.49036 13.0302 2.89379C13.0302 1.29722 14.3358 0.0113393 15.9504 0H15.9758C17.5997 0.00226786 18.9144 1.29948 18.9144 2.89379Z" fill="#FFF"/>
<path d="M0.244504 27.212C0.209904 27.1667 0.179918 27.1191 0.149932 27.0714C0.122252 27.0284 0.0968788 26.983 0.0715058 26.9399C0.0461328 26.8923 0.0230664 26.8469 0 26.7993C0.0784257 26.9376 0.159158 27.0805 0.244504 27.212Z" fill="#FFF"/>
<path d="M15.7497 20.8847C14.225 20.7759 13.0233 19.5263 13.0233 18C13.0233 17.551 13.1271 17.1246 13.3139 16.7436C14.4972 17.8435 15.3599 19.2745 15.7497 20.8847Z" fill="#FFF"/>
<path d="M18.3954 16.3694C17.6273 16.5939 16.8131 16.7141 15.9712 16.7141C15.1292 16.7141 14.3104 16.5939 13.54 16.3649C14.0682 15.6051 14.9585 15.1085 15.9666 15.1085C16.9746 15.1085 17.8649 15.6074 18.3954 16.3694Z" fill="#FFF"/>
<path d="M18.9075 18C18.9075 19.5217 17.7127 20.7691 16.1972 20.8824C16.5847 19.2768 17.4428 17.8526 18.6192 16.7527C18.8037 17.1314 18.9075 17.5532 18.9075 18Z" fill="#FFF"/>
</svg>
