<svg width="87" height="367" viewBox="0 0 87 367" fill="none" xmlns="http://www.w3.org/2000/svg">
<path d="M84.7441 12.878C84.1174 12.878 83.6161 12.7213 83.2401 12.408C82.8641 12.032 82.3941 11.4053 81.8301 10.528C80.2007 7.83333 78.2894 5.51467 76.0961 3.572C73.9654 1.62933 72.148 0.438665 70.6441 0C73.2761 0.375999 75.8141 1.128 78.2581 2.256C80.7021 3.384 82.6761 4.73133 84.1801 6.298C85.6841 7.86466 86.4361 9.4 86.4361 10.904C86.4361 11.468 86.2794 11.938 85.966 12.314C85.7154 12.69 85.3081 12.878 84.7441 12.878ZM77.6001 19.458C77.0361 19.458 76.5661 19.3013 76.1901 18.988C75.8767 18.6747 75.4694 18.1107 74.9681 17.296C73.2134 14.288 71.2394 11.562 69.0461 9.118C66.9154 6.61133 65.1921 5.13866 63.876 4.7C66.4454 5.20133 68.9207 6.14133 71.3021 7.52C73.6834 8.89867 75.5947 10.4967 77.0361 12.314C78.5401 14.0687 79.2921 15.7607 79.2921 17.39C79.2921 18.0167 79.1354 18.518 78.8221 18.894C78.5087 19.27 78.1014 19.458 77.6001 19.458ZM15.654 77.174C13.4607 77.174 11.4554 76.2653 9.63805 74.448C7.82071 72.568 6.37938 69.8733 5.31405 66.364C4.24872 62.8547 3.71605 58.7187 3.71605 53.956C3.71605 50.4467 3.96672 46.9687 4.46805 43.522C4.96938 40.0753 5.69005 36.096 6.63005 31.584C7.94605 25.2547 8.66672 20.7427 8.79205 18.048C8.91738 15.604 8.44738 13.5673 7.38205 11.938C6.37938 10.3087 4.68738 8.77333 2.30605 7.332C4.62472 7.95866 6.41072 8.52267 7.66405 9.024C8.91738 9.46266 10.0767 10.0267 11.142 10.716C11.9567 11.2173 12.9907 12.2513 14.2441 13.818C15.4974 15.322 16.1241 16.2933 16.1241 16.732C16.1241 16.7947 15.8107 17.6093 15.184 19.176C13.0534 24.3773 11.2047 29.6413 9.63805 34.968C8.07138 40.2947 7.28805 45.7153 7.28805 51.23C7.28805 54.802 7.63272 57.9667 8.32205 60.724C9.01138 63.4187 9.88872 65.518 10.9541 67.022C12.0194 68.4633 13.0534 69.184 14.056 69.184C14.5574 69.184 14.9647 69.0587 15.2781 68.808C15.5914 68.4947 15.9047 68.0247 16.2181 67.398L27.31 44.462L18.192 71.91C17.9414 72.85 17.7847 73.8213 17.722 74.824C17.6594 75.764 17.6281 76.328 17.6281 76.516C17.6281 76.704 17.4087 76.8607 16.9701 76.986C16.5941 77.1113 16.1554 77.174 15.654 77.174ZM33.7021 80.84C40.2194 79.524 45.4207 76.704 49.3061 72.38C53.1914 67.9933 55.2594 62.6353 55.5101 56.306C55.6354 51.6687 55.6981 48.1593 55.6981 45.778C55.6981 42.7073 55.6354 38.54 55.5101 33.276C50.9981 34.216 47.7707 34.686 45.8281 34.686C41.9427 34.6233 38.2454 33.652 34.7361 31.772C31.2267 29.892 28.2814 27.2913 25.9001 23.97C27.9681 26.038 30.6627 27.6673 33.9841 28.858C37.3054 30.0487 40.9401 30.644 44.8881 30.644C47.7081 30.644 51.2487 30.1113 55.5101 29.046L55.134 17.39C55.0714 14.758 54.664 12.9407 53.912 11.938C53.2227 10.9353 51.9067 10.434 49.9641 10.434C49.3374 10.434 47.6454 10.622 44.8881 10.998C49.3374 9.05533 52.9094 8.084 55.604 8.084C56.4187 8.084 57.6721 8.554 59.3641 9.494C61.1187 10.434 61.9961 11.092 61.9961 11.468C61.9961 11.656 61.8394 12.2827 61.5261 13.348C61.2127 14.3507 60.9307 16.45 60.68 19.646C60.4294 22.9047 60.2727 25.6307 60.2101 27.824C62.3407 27.1973 64.3774 26.508 66.3201 25.756C67.0094 25.5053 67.5421 25.1607 67.9181 24.722C68.3567 24.2833 68.576 23.8133 68.576 23.312V22.936C68.576 22.4973 68.5447 22.2153 68.482 22.09L75.3441 23.876C75.9707 24.064 76.284 24.3773 76.284 24.816C76.284 26.3827 73.7147 28.0433 68.576 29.798C65.6934 30.8633 62.8734 31.7093 60.1161 32.336V37.036C60.1787 38.4147 60.3667 41.6733 60.68 46.812C60.7427 47.6893 60.8367 49.1933 60.9621 51.324C61.0874 53.392 61.1187 55.2407 61.0561 56.87C60.9934 61.4447 59.6461 65.5493 57.0141 69.184C54.4447 72.8187 51.0607 75.67 46.862 77.738C42.726 79.7433 38.3394 80.7773 33.7021 80.84Z" fill="#2D2D2D"/>
<path d="M6.34805 179.31C5.15738 179.31 4.15472 178.871 3.34005 177.994C2.58805 177.179 2.21205 176.145 2.21205 174.892C2.21205 174.14 2.43138 173.294 2.87005 172.354C3.30872 171.414 4.18605 169.816 5.50205 167.56L7.94605 163.33C13.586 153.241 18.8187 143.559 23.644 134.284C28.4694 124.947 31.6654 118.273 33.2321 114.262C34.0467 112.006 34.454 110.251 34.454 108.998C34.454 107.557 33.9841 106.335 33.0441 105.332C32.1041 104.329 30.5687 103.389 28.438 102.512C33.2007 103.013 36.5847 104.204 38.59 106.084C39.0287 106.46 39.6867 107.463 40.5641 109.092C41.4414 110.659 41.8801 111.693 41.8801 112.194C41.8801 112.257 41.5667 112.758 40.9401 113.698C40.3761 114.575 39.8121 115.515 39.2481 116.518C36.6787 120.842 33.4827 126.388 29.66 133.156C25.9 139.861 22.704 145.689 20.0721 150.64L20.9181 151.486C24.1141 148.227 27.4041 145.439 30.788 143.12C34.1721 140.801 36.7727 139.642 38.59 139.642C40.9087 139.642 42.3501 141.24 42.9141 144.436L46.956 164.364C47.4574 166.996 48.4287 169.033 49.87 170.474C51.3114 171.853 53.0974 172.542 55.2281 172.542C58.4867 172.542 61.714 170.787 64.91 167.278C68.106 163.706 70.9574 159.257 73.4641 153.93C76.0334 148.603 78.07 143.277 79.5741 137.95C78.5087 145.783 76.6914 152.771 74.1221 158.912C71.6154 165.053 68.6074 169.816 65.0981 173.2C61.5887 176.584 57.86 178.276 53.912 178.276C50.4654 178.276 47.6767 177.211 45.5461 175.08C43.4154 172.887 42.0054 169.722 41.316 165.586L37.744 146.316C37.556 145.188 37.274 144.405 36.898 143.966C36.522 143.527 35.9894 143.308 35.3 143.308C33.9214 143.308 31.8847 144.248 29.1901 146.128C26.4954 148.008 23.7694 150.421 21.012 153.366C18.2547 156.311 16.0927 159.257 14.5261 162.202C13.2727 164.583 12.1134 167.403 11.048 170.662C10.4214 172.417 10.0767 173.482 10.014 173.858C9.45005 175.863 8.91738 177.273 8.41605 178.088C7.97738 178.903 7.28805 179.31 6.34805 179.31Z" fill="#2D2D2D"/>
<path d="M36.24 276.652C42.7574 275.273 48.5854 273.017 53.7241 269.884C58.9254 266.751 62.9987 262.897 65.9441 258.322C68.8894 253.747 70.3621 248.703 70.3621 243.188C70.3621 236.984 68.4194 231.877 64.534 227.866C60.7114 223.793 55.5727 221.505 49.118 221.004C47.0501 227.208 44.6687 233.13 41.9741 238.77C39.2794 244.41 36.428 249.392 33.42 253.716L35.112 254.656C35.864 254.969 36.4594 255.439 36.898 256.066C37.3994 256.63 37.6501 257.288 37.6501 258.04C37.6501 258.917 37.3681 259.638 36.8041 260.202C36.2401 260.703 35.5194 260.954 34.6421 260.954C33.0127 260.954 31.3834 260.139 29.7541 258.51C23.926 265.341 18.5994 268.756 13.774 268.756C10.8914 268.756 8.54138 267.565 6.72405 265.184C4.90672 262.803 3.99805 259.732 3.99805 255.972C3.99805 251.648 5.18872 247.324 7.57005 243C10.014 238.676 13.304 234.759 17.4401 231.25L16.312 227.866C15.9987 226.738 15.6854 225.735 15.372 224.858C14.3067 221.662 12.9594 219.124 11.33 217.244C9.70072 215.364 7.47605 213.672 4.65605 212.168C7.16272 212.857 9.54405 213.641 11.8 214.518C14.1187 215.333 15.7481 216.022 16.688 216.586C17.44 217.087 18.0354 217.839 18.4741 218.842C18.9127 219.845 19.2887 221.192 19.6021 222.884L20.9181 228.524C24.3021 226.017 27.9994 223.981 32.01 222.414C36.0207 220.847 40.0627 219.876 44.1361 219.5C44.5747 218.184 44.9194 216.868 45.17 215.552C45.8594 213.108 46.2041 211.259 46.2041 210.006C46.2041 208.753 45.9221 207.75 45.3581 206.998C44.7314 206.121 43.6974 205.494 42.2561 205.118C40.8774 204.742 38.9347 204.554 36.4281 204.554C38.9347 203.927 41.7234 203.614 44.794 203.614C45.8594 203.614 46.956 203.677 48.084 203.802C48.7734 203.865 49.8387 204.46 51.28 205.588C52.7841 206.716 53.5361 207.437 53.5361 207.75C53.5361 207.875 53.3167 208.345 52.8781 209.16C52.5021 209.975 51.8441 211.949 50.9041 215.082L50.34 217.056C50.2147 217.432 50.0894 217.839 49.9641 218.278C49.8387 218.654 49.7134 219.061 49.5881 219.5C54.9147 219.751 59.6461 220.973 63.7821 223.166C67.9807 225.297 71.2394 228.211 73.5581 231.908C75.8767 235.543 77.0361 239.647 77.0361 244.222C77.0361 249.611 75.4381 254.593 72.2421 259.168C69.0461 263.743 64.3774 267.565 58.236 270.636C52.0947 273.707 44.7627 275.712 36.24 276.652ZM29.66 250.802C32.3547 246.854 34.9241 242.279 37.3681 237.078C39.8747 231.877 41.974 226.519 43.666 221.004C39.8434 221.38 35.9894 222.414 32.104 224.106C28.2187 225.798 24.6467 227.991 21.3881 230.686C22.3907 235.073 23.3934 238.707 24.3961 241.59C25.4614 244.473 26.7774 247.011 28.344 249.204C28.5947 249.643 29.0334 250.175 29.66 250.802ZM14.808 263.586C18.1294 263.586 22.1401 260.672 26.84 254.844C25.3987 252.588 23.9887 249.768 22.6101 246.384C21.294 243 19.8214 238.77 18.192 233.694C15.184 236.702 12.8027 240.023 11.048 243.658C9.35605 247.23 8.51005 250.896 8.51005 254.656C8.51005 257.163 9.07405 259.293 10.2021 261.048C11.3927 262.74 12.928 263.586 14.808 263.586Z" fill="#2D2D2D"/>
<path d="M25.0541 366.944C34.3287 366.067 42.4441 364.124 49.4001 361.116C56.4187 358.108 61.808 354.411 65.568 350.024C69.3907 345.575 71.3021 340.812 71.3021 335.736C71.3021 332.665 70.5814 329.908 69.1401 327.464C67.7614 325.02 65.7561 323.109 63.1241 321.73C60.5547 320.351 57.5467 319.662 54.1001 319.662C50.5281 319.662 46.7367 320.32 42.7261 321.636C38.7154 322.889 34.6734 324.519 30.6 326.524C26.5267 328.467 21.2627 331.193 14.808 334.702L11.988 336.394C10.9227 337.083 10.2647 337.428 10.014 337.428C9.51272 337.428 8.47872 337.052 6.91205 336.3C5.40805 335.485 4.34272 334.796 3.71605 334.232C3.08938 333.605 2.40005 332.321 1.64805 330.378C0.958715 328.435 0.426049 326.399 0.0500488 324.268C0.927382 326.211 1.96138 327.652 3.15205 328.592C4.40538 329.532 5.87805 330.002 7.57005 330.002C8.69805 330.002 10.202 329.689 12.082 329.062C14.0247 328.435 16.7194 327.464 20.166 326.148C26.8087 323.641 32.762 321.636 38.0261 320.132C43.3527 318.628 48.554 317.876 53.6301 317.876C58.33 317.876 62.5287 318.753 66.2261 320.508C69.9861 322.2 72.9001 324.55 74.9681 327.558C77.0987 330.503 78.164 333.793 78.164 337.428C78.164 342.88 76.0334 347.862 71.7721 352.374C67.5734 356.886 61.4634 360.458 53.4421 363.09C45.4207 365.659 35.9581 366.944 25.0541 366.944Z" fill="#2D2D2D"/>
</svg>
