<svg width="300" height="300" viewBox="0 0 300 300" fill="none" xmlns="http://www.w3.org/2000/svg">
<g clip-path="url(#clip0_556_345)">
<path d="M283.333 222.458C282.911 223.233 282.468 224.007 282.026 224.782C282.007 224.802 282.007 224.821 282.007 224.839C281.546 225.577 281.103 226.332 280.643 227.069C280.969 226.522 281.296 225.973 281.603 225.425C281.815 225.085 282.007 224.764 282.199 224.423C282.583 223.781 282.968 223.119 283.333 222.458Z" fill="black"/>
<path d="M279.22 229.299C252.29 271.765 204.369 300 149.722 300C95.0732 300 45.6534 270.877 18.9541 227.315C38.5605 258.876 73.9482 279.929 114.314 279.929C126.693 279.929 138.592 277.945 149.722 274.297C160.851 277.945 172.749 279.929 185.128 279.929C224.648 279.929 259.363 259.764 279.22 229.299Z" fill="black"/>
<path d="M111.585 128.323C103.588 124.241 94.7078 121.632 85.3083 120.82C83.2323 120.631 81.1178 120.537 78.9842 120.537C64.683 120.537 51.3814 124.694 40.2519 131.857C38.7718 124.751 38.0029 117.362 38.0029 109.821C38.0029 102.281 38.7718 95.0041 40.2327 87.9357C50.3434 38.7236 93.9581 1.41731 146.684 0.0376977H146.838C147.03 0.0187988 147.222 0.0187988 147.415 0.0187988C147.492 0.0376977 147.587 0.0376977 147.683 0.0376977C110.797 1.07713 80.9833 29.8411 79.0418 65.8812C78.965 67.1286 78.9265 68.3758 78.9265 69.6421C78.9265 84.5724 83.6936 98.3874 91.8245 109.707C97.1105 117.097 103.838 123.428 111.585 128.323Z" fill="black"/>
<path d="M261.42 109.821C261.42 117.342 260.652 124.694 259.191 131.801C248.08 124.676 234.797 120.537 220.554 120.537C218.402 120.537 216.267 120.631 214.153 120.82C204.715 121.652 195.797 124.297 187.781 128.417C195.585 123.522 202.332 117.192 207.657 109.764C215.807 98.4249 220.592 84.5907 220.592 69.6421C220.592 68.3947 220.554 67.1474 220.497 65.9001C218.555 29.879 188.742 1.09603 151.874 0.0376964C152.162 0.0187975 152.47 0.0376964 152.758 0.0376964C205.465 1.41731 249.061 38.7047 259.191 87.9174C260.652 94.9857 261.42 102.318 261.42 109.821Z" fill="black"/>
<path d="M188.415 252.262C177.286 261.994 164.157 269.554 149.722 274.298C135.286 269.573 122.176 262.013 111.047 252.299C125.175 245.231 136.593 233.646 143.263 219.453C147.127 211.27 149.414 202.255 149.779 192.749C150.125 202.255 152.413 211.289 156.257 219.453C162.927 233.608 174.306 245.193 188.415 252.262Z" fill="black"/>
<path d="M174.287 24.1149C174.287 37.4197 163.311 48.2298 149.76 48.2298C136.209 48.2298 125.252 37.4197 125.252 24.1149C125.252 10.8102 136.132 0.0944942 149.587 0H149.799C163.331 0.0188988 174.287 10.829 174.287 24.1149Z" fill="black"/>
<path d="M18.7045 226.767C18.4162 226.389 18.1663 225.992 17.9164 225.595C17.6858 225.237 17.4743 224.858 17.2629 224.499C17.0514 224.102 16.8592 223.724 16.667 223.327C17.3205 224.48 17.9933 225.671 18.7045 226.767Z" fill="black"/>
<path d="M147.914 174.039C135.208 173.133 125.194 162.719 125.194 150C125.194 146.258 126.059 142.705 127.616 139.53C137.477 148.696 144.666 160.621 147.914 174.039Z" fill="black"/>
<path d="M169.962 136.412C163.561 138.282 156.776 139.284 149.76 139.284C142.743 139.284 135.92 138.282 129.5 136.374C133.902 130.042 141.321 125.904 149.722 125.904C158.122 125.904 165.541 130.062 169.962 136.412Z" fill="black"/>
<path d="M174.229 150C174.229 162.681 164.273 173.076 151.644 174.02C154.873 160.64 162.024 148.772 171.827 139.606C173.364 142.762 174.229 146.277 174.229 150Z" fill="black"/>
</g>
<defs>
<clipPath id="clip0_556_345">
<rect width="266.667" height="300" fill="white" transform="translate(16.667)"/>
</clipPath>
</defs>
</svg>
