<?xml version="1.0" standalone="no"?>
<!DOCTYPE svg PUBLIC "-//W3C//DTD SVG 20010904//EN"
 "http://www.w3.org/TR/2001/REC-SVG-20010904/DTD/svg10.dtd">
<svg version="1.0" xmlns="http://www.w3.org/2000/svg"
 width="700.000000pt" height="700.000000pt" viewBox="0 0 700.000000 700.000000"
 preserveAspectRatio="xMidYMid meet">
<metadata>
Created by potrace 1.14, written by Peter Selinger 2001-2017
</metadata>
<g transform="translate(0.000000,700.000000) scale(0.100000,-0.100000)"
fill="#000000" stroke="none">
<path d="M3364 6985 c-208 -48 -385 -226 -428 -429 -66 -315 148 -622 469
-673 354 -57 674 223 659 578 -10 257 -205 482 -459 528 -68 12 -179 11 -241
-4z"/>
<path d="M3065 6964 c-312 -52 -595 -150 -855 -297 -761 -430 -1238 -1166
-1316 -2027 -6 -69 -6 -341 0 -400 5 -51 18 -163 21 -180 1 -8 6 -35 11 -60 4
-25 8 -48 8 -52 2 -17 17 -19 38 -6 136 89 391 188 548 214 14 2 34 6 45 9 86
19 336 26 459 12 155 -17 345 -66 475 -123 29 -13 56 -24 58 -24 3 0 -35 31
-84 69 -238 184 -437 457 -537 736 -23 66 -54 175 -61 220 -2 11 -9 49 -16 85
-21 119 -19 353 6 505 36 227 163 522 295 689 141 178 292 316 455 416 147 90
351 174 515 210 30 6 69 15 85 20 53 14 -9 8 -150 -16z"/>
<path d="M3738 6983 c6 -2 18 -2 25 0 6 3 1 5 -13 5 -14 0 -19 -2 -12 -5z"/>
<path d="M3787 6979 c5 -4 44 -14 88 -24 520 -113 982 -515 1168 -1015 35 -95
61 -184 72 -250 3 -19 10 -62 16 -95 20 -113 17 -331 -6 -484 -22 -144 -92
-348 -168 -491 -37 -69 -113 -188 -126 -200 -4 -3 -14 -17 -24 -32 -35 -55
-202 -220 -293 -289 -52 -40 -94 -74 -94 -76 0 -2 21 7 48 21 56 28 210 80
303 101 249 56 518 54 789 -9 44 -10 179 -55 218 -72 101 -45 190 -89 222
-110 51 -35 47 -39 66 68 1 9 5 36 9 60 3 23 8 59 11 78 10 61 12 452 3 520
-26 193 -29 214 -55 324 -13 55 -26 111 -29 124 -13 57 -97 278 -141 373 -80
171 -223 403 -324 523 -311 370 -635 612 -1048 781 -96 39 -306 108 -364 119
-13 2 -43 9 -68 15 -100 23 -283 50 -273 40z"/>
<path d="M3478 4066 c-1 -2 -28 -6 -60 -10 -71 -7 -178 -47 -243 -90 -54 -36
-145 -125 -145 -142 0 -27 271 -70 452 -71 184 -1 478 42 478 70 0 17 -125
133 -172 159 -74 41 -151 67 -220 73 -35 4 -68 8 -75 10 -6 2 -13 2 -15 1z"/>
<path d="M2950 3674 c-28 -81 -34 -200 -14 -294 38 -180 177 -337 357 -404 68
-26 157 -42 157 -29 0 4 -12 44 -26 88 -56 174 -128 318 -232 464 -60 83 -198
241 -211 241 -4 0 -18 -30 -31 -66z"/>
<path d="M3944 3677 c-144 -153 -234 -290 -323 -490 -23 -50 -81 -222 -81
-239 0 -8 24 -7 88 6 189 39 360 203 418 401 24 84 22 220 -5 307 -12 37 -25
70 -30 73 -5 2 -35 -23 -67 -58z"/>
<path d="M3489 2429 c-2 -83 -36 -246 -76 -369 -124 -372 -398 -709 -730 -896
-46 -26 -83 -50 -83 -54 0 -12 148 -127 270 -208 135 -90 375 -212 513 -262
53 -19 97 -38 97 -41 0 -14 -325 -91 -440 -105 -30 -3 -68 -8 -85 -11 -61 -9
-492 -11 -560 -2 -317 43 -509 93 -752 195 -369 154 -711 404 -965 703 -140
165 -133 147 16 -39 120 -150 382 -414 524 -527 332 -266 659 -452 1045 -594
68 -25 285 -95 322 -103 6 -1 37 -9 70 -16 33 -8 62 -14 65 -15 31 -7 71 -16
95 -20 133 -23 207 -34 245 -39 234 -28 674 -28 860 -1 14 2 47 6 74 10 43 5
149 23 241 40 84 16 285 72 405 112 571 191 1095 530 1488 962 119 131 134
148 200 236 l53 70 -63 -70 c-295 -329 -597 -549 -971 -709 -151 -65 -373
-133 -493 -152 -22 -3 -41 -7 -44 -9 -3 -2 -26 -6 -50 -10 -25 -3 -52 -8 -60
-10 -73 -19 -522 -27 -659 -12 -126 14 -251 37 -386 72 -76 19 -139 35 -141
35 -2 0 -4 4 -4 8 0 4 26 16 58 27 31 10 62 22 67 25 6 4 26 13 45 20 145 56
365 178 515 285 100 72 195 148 195 157 0 3 -34 25 -75 47 -135 75 -297 208
-441 364 -38 42 -132 180 -178 263 -98 174 -175 418 -191 599 -7 76 -15 98
-16 44z"/>
</g>
</svg>
