<svg width="61" height="61" viewBox="0 0 61 61" fill="none" xmlns="http://www.w3.org/2000/svg">
<path d="M31.1291 57.3295L31.0946 57.3844L31.034 57.481L30.9305 57.6458L30.7429 57.6973L30.6283 57.7287L30.4946 57.7654L30.3611 57.7281L30.2488 57.6966L30.0629 57.6445L29.9602 57.481L29.8995 57.3844L29.8651 57.3295L29.8457 57.2677C28.7098 53.6324 27.2582 50.1033 25.5075 46.7209L26.2845 46.1181C27.4924 47.1961 28.655 48.3217 29.7723 49.4948L31.1291 57.3295ZM31.1291 57.3295L31.1484 57.2677C32.2843 53.6324 33.7359 50.1033 35.4866 46.7209L34.7089 46.1187C33.5057 47.1966 32.3433 48.322 31.2218 49.4948L30.4963 50.2518L29.773 49.4956L31.1291 57.3295ZM57.5782 30.8754L57.5205 30.8934C53.8854 32.0311 50.3564 33.4835 46.9735 35.234L46.3707 34.457C47.4487 33.2491 48.5743 32.0857 49.7474 30.967L57.5782 30.8754ZM57.5782 30.8754L57.6299 30.8441L57.7265 30.7857L57.8971 30.6825L57.9499 30.4902L57.9814 30.3757L58.0177 30.2433L57.9814 30.111L57.9499 29.9964L57.8971 29.8041L57.7265 29.7009L57.6299 29.6425L57.5781 29.6111L57.5203 29.5931C53.885 28.4572 50.356 27.0056 46.9736 25.2549L46.3713 26.0326C47.4492 27.2358 48.5746 28.3981 49.7474 29.5197C49.7474 29.5197 49.7475 29.5197 49.7475 29.5197L50.504 30.2433L49.748 30.9665L57.5782 30.8754ZM58.1202 27.6729C58.6906 27.8486 59.1853 28.2106 59.5254 28.7008L59.5232 28.703C59.8319 29.1561 59.9969 29.6917 59.9969 30.2399C59.9969 30.7874 59.8323 31.3223 59.5245 31.775C59.1837 32.2656 58.6879 32.6274 58.1166 32.8022L58.1138 32.8031C52.1441 34.6684 46.4839 37.4085 41.3178 40.934L41.2398 40.9872L41.1866 41.0651C37.66 46.2328 34.9185 51.8944 33.0513 57.8656L33.0504 57.8686C32.8757 58.44 32.5137 58.936 32.0228 59.2766C31.5713 59.5865 31.0362 59.7516 30.4885 59.7499L30.4837 59.7499C29.9116 59.7537 29.3537 59.5726 28.8928 59.2337C28.4319 58.8948 28.0928 58.4161 27.9259 57.8689L27.9249 57.8658C26.0612 51.8958 23.3244 46.2343 19.8033 41.0655L19.75 40.9872L19.6718 40.9339C14.5083 37.4123 8.85218 34.6739 2.8872 32.8077L2.88567 32.8072C2.31209 32.6297 1.81509 32.2641 1.47491 31.7694C1.16737 31.3166 1.00293 30.7818 1.00293 30.2343C1.00293 29.6873 1.16712 29.1529 1.47422 28.7002C1.81562 28.2095 2.31209 27.8478 2.88389 27.6733L2.88719 27.6722C8.85143 25.8064 14.5073 23.0696 19.6716 19.5506L19.7499 19.4973L19.8032 19.419C23.3227 14.2549 26.0595 8.59898 27.9249 2.63452L27.9255 2.63249C28.1021 2.05928 28.4669 1.56242 28.9609 1.22224C29.4141 0.914526 29.9492 0.75 30.4971 0.75C31.0445 0.75 31.5793 0.914306 32.0324 1.22163C32.523 1.56302 32.8847 2.05948 33.0593 2.63125L33.0603 2.63461C34.9271 8.59934 37.6654 14.2553 41.1865 19.4191L41.2399 19.4973L41.3181 19.5506C46.4871 23.0715 52.1485 25.8084 58.1184 27.6723L58.1202 27.6729ZM29.8995 3.10444L29.8651 3.15931L29.8457 3.22115C28.7094 6.85633 27.2578 10.3853 25.5075 13.768L26.2857 14.3697C27.4886 13.2891 28.6506 12.1641 29.7719 10.9945L29.7723 10.9941L30.4963 10.2371L31.2215 10.9938C31.2216 10.9938 31.2216 10.9939 31.2217 10.9939C32.3389 12.1639 33.5014 13.2894 34.7091 14.3703L35.4866 13.768C33.7363 10.3853 32.2847 6.85633 31.1484 3.22115L31.1291 3.15931L31.0946 3.10444L31.034 3.00785L30.9305 2.84308L30.7429 2.79157L30.6283 2.76012L30.4946 2.72343L30.3611 2.76081L30.2488 2.79225L30.0629 2.84432L29.9602 3.00785L29.8995 3.10444ZM3.36425 30.8441L3.41593 30.8754L3.47357 30.8934C7.10855 32.0315 10.6376 33.4839 14.0207 35.234L14.6224 34.4558C13.5418 33.253 12.4168 32.0903 11.2474 30.9676L11.2467 30.967L10.4901 30.2433L11.2464 29.52C12.4165 28.4027 13.542 27.2402 14.623 26.0324L14.0206 25.2549C10.638 27.0052 7.10897 28.4568 3.47379 29.5931L3.41604 29.6112L3.36426 29.6425L3.26767 29.7009L3.097 29.8041L3.04421 29.9964L3.01276 30.111L2.97643 30.2433L3.01276 30.3757L3.04421 30.4902L3.097 30.6825L3.26766 30.7857L3.36425 30.8441ZM39.7283 39.6012L39.8024 39.5497L39.8538 39.4756C42.057 36.3024 44.5375 33.3311 47.2661 30.5965L47.6186 30.2433L47.2661 29.8901C44.5375 27.1563 42.057 24.1857 39.8538 21.0132L39.8024 20.9392L39.7285 20.8878C36.5562 18.6832 33.5848 16.2027 30.849 13.4752L30.4958 13.1232L30.1428 13.4753C27.4083 16.2032 24.4376 18.6837 21.2657 20.8878L21.1918 20.9391L21.1404 21.0131C18.9365 24.1851 16.456 27.1557 13.728 29.8902L13.3757 30.2433L13.7279 30.5964C16.4559 33.3316 18.9365 36.303 21.1404 39.4757L21.1918 39.5498L21.2659 39.6012C24.4382 41.8038 27.4088 44.2835 30.1428 47.0113L30.4958 47.3635L30.849 47.0114C33.5842 44.2841 36.5556 41.8043 39.7283 39.6012Z" fill="white" fill-opacity="0.5" stroke="white"/>
</svg>
