<svg width="87" height="61" viewBox="0 0 87 61" fill="none" xmlns="http://www.w3.org/2000/svg">
<path d="M19.1921 52.3831H19.1917C17.4987 52.3817 15.8358 51.9354 14.3696 51.0888C12.9034 50.2423 11.6855 49.0252 10.8379 47.5596L10.8378 47.5594L3.91226 35.5698C3.06287 34.1017 2.61562 32.4357 2.61562 30.7397C2.61562 29.0436 3.06287 27.3776 3.91226 25.9096L10.8378 13.9257L10.8383 13.9249C11.6875 12.4617 12.9061 11.2471 14.3721 10.4028C15.8382 9.5585 17.5003 9.11405 19.1921 9.11394H19.1921H27.169V7.46953H19.1922C19.1922 7.46953 19.1922 7.46953 19.1921 7.46953C17.2116 7.4699 15.2661 7.99172 13.5512 8.98251C11.8362 9.97333 10.4124 11.3982 9.42287 13.1139L9.42268 13.1142L2.49714 25.1009L19.1921 52.3831ZM19.1921 52.3831H27.169V54.0246H19.1925C17.2105 54.0231 15.2639 53.4992 13.5488 52.5059C11.8338 51.5125 10.4108 50.0846 9.42327 48.3661L9.42263 48.365M19.1921 52.3831L9.42263 48.365M9.42263 48.365L2.49714 36.3843L9.42263 48.365ZM84.6579 25.3744L84.5 25.1011L77.5774 13.1142C77.5773 13.1142 77.5773 13.1141 77.5773 13.1141C76.5868 11.3997 75.1626 9.97613 73.4478 8.98637C71.733 7.99659 69.7879 7.4755 67.8079 7.47544H59.831V9.11394H67.8079H67.8083C69.5013 9.11532 71.1643 9.56165 72.6304 10.4082C74.0966 11.2548 75.3145 12.4718 76.1621 13.9374L75.7293 14.1877L76.1621 13.9374L83.0848 25.9096C83.0848 25.9096 83.0849 25.9096 83.0849 25.9097C83.9342 27.3777 84.3815 29.0437 84.3815 30.7397C84.3815 32.4355 83.9343 34.1014 83.0851 35.5693L84.6579 25.3744ZM84.6579 25.3744C85.5471 27.019 86.0139 28.8607 86.0139 30.7337C86.0139 32.7145 85.4918 34.6603 84.5002 36.375L84.5 36.3753L77.5773 48.3653L77.5768 48.3661C76.5893 50.0846 75.1663 51.5125 73.4512 52.5059C71.7361 53.4992 69.7895 54.0231 67.8075 54.0246H59.831V52.3861H67.8079H67.8083C69.5013 52.3847 71.1643 51.9383 72.6304 51.0918C74.0966 50.2452 75.3145 49.0282 76.1621 47.5626L76.1623 47.5622L83.0848 35.5698L84.6579 25.3744ZM43.3821 22.55L43.378 22.548C41.7987 22.5715 40.2589 23.0511 38.9447 23.9303C37.5982 24.8311 36.549 26.1108 35.9297 27.6077C35.3104 29.1046 35.1488 30.7516 35.4653 32.3403C35.7819 33.9291 36.5623 35.3884 37.708 36.5337C38.8537 37.679 40.3132 38.4589 41.9021 38.7749C43.4909 39.0908 45.1378 38.9287 46.6345 38.3089C48.1313 37.6891 49.4106 36.6394 50.3109 35.2926C51.2112 33.9459 51.692 32.3625 51.6926 30.7426L43.3821 22.55ZM43.3821 22.55H43.5M43.3821 22.55H43.5M43.5 22.55C45.6728 22.55 47.7566 23.4132 49.293 24.9496C50.8294 26.486 51.6925 28.5697 51.6926 30.7424L43.5 22.55ZM0.986328 30.7426C0.986328 32.723 1.5073 34.6686 2.49694 36.3839L0.986328 30.7426ZM0.986328 30.7426C0.986328 28.7622 1.50732 26.8166 2.49699 25.1012L0.986328 30.7426ZM44.306 43.8604V60.25H42.6822V43.8611C43.223 43.8939 43.7652 43.8937 44.306 43.8604ZM42.6704 1.25H44.306V17.6396C43.7613 17.6061 43.2151 17.6061 42.6704 17.6396V1.25ZM56.5912 29.9248H72.9808V31.569L56.5912 31.5607C56.6247 31.0159 56.6247 30.4696 56.5912 29.9248ZM30.3911 31.5692H14.0015V29.9337H30.3911C30.3576 30.4784 30.3576 31.0246 30.3911 31.5692Z" fill="white" fill-opacity="0.5" stroke="white"/>
</svg>
