<svg width="61" height="61" viewBox="0 0 61 61" fill="none" xmlns="http://www.w3.org/2000/svg">
<path d="M38.3519 22.4021L38.352 22.4022C39.9065 23.9566 40.9651 25.9372 41.3939 28.0933C41.8227 30.2494 41.6024 32.4843 40.761 34.5153C39.9196 36.5462 38.4948 38.2821 36.6668 39.5032C34.8388 40.7244 32.6897 41.376 30.4914 41.3757C28.293 41.3754 26.1441 40.7232 24.3165 39.5015C22.4888 38.2799 21.0645 36.5437 20.2236 34.5125C19.3828 32.4813 19.1631 30.2463 19.5925 28.0903C20.0219 25.9343 21.0811 23.9541 22.636 22.4L22.6361 22.3999C23.668 21.368 24.8932 20.5494 26.2415 19.991C27.5899 19.4326 29.035 19.1453 30.4944 19.1455C31.9538 19.1457 33.3989 19.4334 34.7471 19.9922C36.0953 20.5509 37.3202 21.3698 38.3519 22.4021ZM42.1613 41.9259L42.2881 41.7993C42.4931 41.622 42.7256 41.4786 42.9768 41.3749C43.2834 41.2484 43.6119 41.1835 43.9436 41.184C44.2752 41.1846 44.6035 41.2504 44.9097 41.3779C45.2159 41.5054 45.494 41.692 45.728 41.927L45.7287 41.9278C46.0818 42.2808 46.3222 42.7307 46.4195 43.2204C46.5169 43.7101 46.4668 44.2177 46.2756 44.6789C46.0844 45.1401 45.7607 45.5343 45.3454 45.8115C44.9302 46.0888 44.442 46.2366 43.9427 46.2363C43.4434 46.2361 42.9554 46.0877 42.5405 45.8101C42.1255 45.5324 41.8022 45.1379 41.6115 44.6764C41.4208 44.215 41.3713 43.7074 41.4691 43.2178C41.567 42.7282 41.8079 42.2786 42.1613 41.9259ZM44.4365 14.3419C44.9244 14.4394 45.3725 14.6789 45.7246 15.0303C45.7259 15.0316 45.7271 15.0328 45.7284 15.0341C45.9614 15.2676 46.1464 15.5445 46.2728 15.8491C46.4 16.1555 46.4655 16.4838 46.4657 16.8155L46.9657 16.8153L46.4657 16.8155C46.4659 17.1472 46.4007 17.4756 46.2738 17.7821C46.147 18.0885 45.961 18.367 45.7265 18.6015C45.3734 18.9546 44.9236 19.195 44.4339 19.2923C43.9442 19.3897 43.4366 19.3396 42.9754 19.1484C42.5141 18.9572 42.12 18.6335 41.8427 18.2182C41.5655 17.803 41.4177 17.3148 41.4179 16.8155C41.4182 16.3162 41.5665 15.8282 41.8442 15.4133C42.1219 14.9983 42.5164 14.675 42.9778 14.4843C43.4393 14.2936 43.9469 14.244 44.4365 14.3419ZM14.5758 16.3244C14.6737 15.8348 14.9145 15.3852 15.268 15.0326C15.7415 14.5601 16.3832 14.2949 17.0521 14.2952C17.721 14.2956 18.3624 14.5614 18.8354 15.0344C19.1885 15.3875 19.4289 15.8373 19.5262 16.327C19.6235 16.8168 19.5735 17.3243 19.3823 17.7856C19.1911 18.2468 18.8674 18.641 18.4521 18.9182C18.0369 19.1954 17.5487 19.3433 17.0494 19.343C16.5501 19.3427 16.0621 19.1944 15.6472 18.9167C15.2322 18.6391 14.9089 18.2446 14.7182 17.7831C14.5275 17.3217 14.4779 16.814 14.5758 16.3244ZM17.5499 41.2195C18.0395 41.3173 18.4891 41.5582 18.8418 41.9116C19.3143 42.3851 19.5795 43.0268 19.5791 43.6957C19.5788 44.3647 19.3129 45.0061 18.8399 45.4791C18.4869 45.8321 18.037 46.0725 17.5473 46.1699C17.0576 46.2672 16.55 46.2171 16.0888 46.0259C15.6275 45.8347 15.2334 45.511 14.9561 45.0958C14.6789 44.6805 14.5311 44.1924 14.5313 43.6931C14.5316 43.1938 14.68 42.7058 14.9576 42.2908C15.2353 41.8759 15.6298 41.5526 16.0912 41.3619C16.5527 41.1712 17.0603 41.1216 17.5499 41.2195ZM58.0386 27.5388C57.4246 21.3358 54.7343 15.527 50.4117 11.0496L51.066 10.3952L51.7121 9.74916C54.2864 12.4122 56.3371 15.5374 57.7557 18.9621C59.238 22.5408 60.001 26.3764 60.001 30.25C60.001 34.1236 59.238 37.9592 57.7557 41.5379C56.2733 45.1167 54.1006 48.3684 51.3616 51.1074C47.2361 55.2337 41.9797 58.0439 36.2571 59.1827C30.5345 60.3215 24.6027 59.7376 19.2119 57.505C13.8212 55.2724 9.21352 51.4914 5.97175 46.64C2.72997 41.7886 0.999666 36.0848 0.999666 30.25C0.999666 24.4152 2.72997 18.7114 5.97175 13.86C9.21352 9.00865 13.8212 5.22756 19.2119 2.99496C24.6027 0.762357 30.5345 0.178527 36.2571 1.3173C41.8162 2.42352 46.9353 5.10702 51.0051 9.04201L50.3589 9.68814L49.7047 10.3423C47.2137 7.93498 44.29 6.01774 41.0861 4.69251C37.7279 3.30348 34.1282 2.59227 30.4941 2.59981C24.0942 2.60326 17.8934 4.8256 12.9483 8.8882C8.0029 12.951 4.61923 18.6028 3.37379 24.8806C2.12835 31.1585 3.09819 37.674 6.11807 43.3169C9.13795 48.9599 14.021 53.3812 19.9353 55.8275C25.8495 58.2738 32.429 58.5937 38.5527 56.7328C44.6764 54.8719 49.9654 50.9452 53.5185 45.6219C57.0716 40.2985 58.6691 33.9079 58.0386 27.5388Z" fill="white" fill-opacity="0.5" stroke="white"/>
</svg>
