<svg width="61" height="61" viewBox="0 0 61 61" fill="none" xmlns="http://www.w3.org/2000/svg">
<mask id="path-1-inside-1_616_530" fill="white">
<path d="M54.694 24.9453H44.5096L51.714 17.7329C52.8024 16.6445 53.4138 15.1683 53.4138 13.6291C53.4138 12.0899 52.8024 10.6138 51.714 9.52537C50.6256 8.43699 49.1495 7.82554 47.6103 7.82554C46.071 7.82554 44.5949 8.43699 43.5065 9.52537L36.302 16.7378V6.55337C36.302 5.01422 35.6906 3.53811 34.6023 2.44977C33.5139 1.36142 32.0378 0.75 30.4987 0.75C28.9595 0.75 27.4834 1.36142 26.3951 2.44977C25.3067 3.53811 24.6953 5.01422 24.6953 6.55337V16.7378L17.4829 9.53599C16.3787 8.53731 14.933 8.0012 13.4446 8.03851C11.9563 8.07582 10.5392 8.6837 9.48645 9.73645C8.4337 10.7892 7.82582 12.2063 7.78851 13.6946C7.7512 15.183 8.28731 16.6287 9.28599 17.7329L16.4878 24.9453H6.30337C4.76422 24.9453 3.28811 25.5567 2.19977 26.6451C1.11142 27.7334 0.5 29.2095 0.5 30.7487C0.5 32.2878 1.11142 33.7639 2.19977 34.8523C3.28811 35.9406 4.76422 36.552 6.30337 36.552H16.4878L9.28599 43.7538C8.72015 44.2859 8.26688 44.9262 7.95304 45.6367C7.6392 46.3472 7.47118 47.1135 7.45894 47.8901C7.44669 48.6667 7.59047 49.4379 7.88175 50.1579C8.17303 50.878 8.60589 51.5322 9.15467 52.0819C9.70345 52.6315 10.357 53.0654 11.0765 53.3579C11.7961 53.6503 12.5671 53.7954 13.3437 53.7844C14.1203 53.7734 14.8869 53.6066 15.5979 53.2939C16.3089 52.9812 16.9499 52.529 17.4829 51.964L24.6847 44.7622V54.9466C24.6847 55.7087 24.8348 56.4634 25.1264 57.1675C25.4181 57.8716 25.8456 58.5113 26.3845 59.0502C26.9233 59.5891 27.5631 60.0166 28.2672 60.3082C28.9713 60.5999 29.7259 60.75 30.4881 60.75C31.2502 60.75 32.0048 60.5999 32.7089 60.3082C33.413 60.0166 34.0528 59.5891 34.5917 59.0502C35.1306 58.5113 35.558 57.8716 35.8497 57.1675C36.1413 56.4634 36.2914 55.7087 36.2914 54.9466V44.7596L43.5038 51.964C44.0429 52.5031 44.6829 52.9307 45.3873 53.2225C46.0916 53.5142 46.8465 53.6644 47.6089 53.6644C48.3713 53.6644 49.1262 53.5142 49.8306 53.2225C50.5349 52.9307 51.1749 52.5031 51.714 51.964C52.2531 51.4249 52.6807 50.7849 52.9725 50.0806C53.2642 49.3762 53.4144 48.6213 53.4144 47.8589C53.4144 47.0965 53.2642 46.3416 52.9725 45.6373C52.6807 44.9329 52.2531 44.2929 51.714 43.7538L44.5122 36.552H54.6966C56.2358 36.552 57.7119 35.9406 58.8002 34.8523C59.8886 33.7639 60.5 32.2878 60.5 30.7487C60.5 29.2095 59.8886 27.7334 58.8002 26.6451C57.7119 25.5567 56.2358 24.9453 54.6966 24.9453H54.694ZM54.694 34.1877H38.8017L50.0396 45.4256C50.5977 46.0863 50.8872 46.9324 50.851 47.7965C50.8147 48.6605 50.4551 49.4794 49.8436 50.091C49.2321 50.7025 48.4132 51.062 47.5491 51.0983C46.6851 51.1346 45.8389 50.845 45.1782 50.2869L33.9351 39.0491V54.944C33.9747 55.4195 33.9153 55.8981 33.7605 56.3495C33.6058 56.8009 33.3591 57.2153 33.036 57.5664C32.7129 57.9176 32.3205 58.1979 31.8835 58.3897C31.4465 58.5814 30.9745 58.6804 30.4973 58.6804C30.0202 58.6804 29.5482 58.5814 29.1112 58.3897C28.6742 58.1979 28.2818 57.9176 27.9587 57.5664C27.6356 57.2153 27.3889 56.8009 27.2341 56.3495C27.0794 55.8981 27.02 55.4195 27.0596 54.944V39.0491L15.8217 50.2896C15.513 50.6525 15.1324 50.9474 14.704 51.1559C14.2756 51.3644 13.8087 51.4819 13.3326 51.501C12.8566 51.5201 12.3817 51.4403 11.938 51.2668C11.4943 51.0932 11.0913 50.8297 10.7545 50.4927C10.4177 50.1557 10.1544 49.7526 9.9811 49.3088C9.80781 48.865 9.72833 48.3901 9.74767 47.9141C9.76701 47.438 9.88475 46.9711 10.0935 46.5428C10.3022 46.1146 10.5974 45.7341 10.9604 45.4256L22.1983 34.1851H6.30337C5.43795 34.117 4.62999 33.7252 4.04071 33.0877C3.45142 32.4503 3.12413 31.6141 3.12413 30.746C3.12413 29.8779 3.45142 29.0417 4.04071 28.4043C4.62999 27.7669 5.43795 27.375 6.30337 27.307H22.2009L10.9604 16.0717C10.5957 15.7637 10.2989 15.3833 10.0888 14.9546C9.87874 14.5259 9.75992 14.0583 9.73988 13.5813C9.71984 13.1043 9.79902 12.6284 9.97242 12.1836C10.1458 11.7388 10.4096 11.3348 10.7472 10.9972C11.0848 10.6596 11.4888 10.3958 11.9336 10.2224C12.3784 10.049 12.8543 9.96984 13.3313 9.98988C13.8083 10.0099 14.2759 10.1287 14.7046 10.3388C15.1333 10.5489 15.5137 10.8457 15.8217 11.2104L27.0623 22.4483V6.55337C27.0226 6.07784 27.082 5.59925 27.2368 5.14785C27.3916 4.69646 27.6383 4.28208 27.9614 3.93091C28.2845 3.57975 28.6769 3.29943 29.1139 3.10769C29.5508 2.91594 30.0228 2.81694 30.5 2.81694C30.9772 2.81694 31.4492 2.91594 31.8861 3.10769C32.3231 3.29943 32.7155 3.57975 33.0386 3.93091C33.3617 4.28208 33.6084 4.69646 33.7632 5.14785C33.918 5.59925 33.9774 6.07784 33.9377 6.55337V22.4483L45.1782 11.2104C45.4972 10.8907 45.8761 10.6371 46.2932 10.4641C46.7102 10.2911 47.1574 10.202 47.6089 10.202C48.0605 10.202 48.5076 10.2911 48.9247 10.4641C49.3418 10.6371 49.7207 10.8907 50.0396 11.2104C50.6813 11.8566 51.0414 12.7304 51.0414 13.6411C51.0414 14.5518 50.6813 15.4255 50.0396 16.0717L38.7991 27.3096H54.694C55.1683 27.2723 55.6452 27.3336 56.0948 27.4895C56.5443 27.6454 56.9567 27.8926 57.3061 28.2156C57.6555 28.5386 57.9343 28.9304 58.1249 29.3663C58.3156 29.8022 58.414 30.2729 58.414 30.7487C58.414 31.2245 58.3156 31.6951 58.1249 32.1311C57.9343 32.567 57.6555 32.9588 57.3061 33.2817C56.9567 33.6047 56.5443 33.8519 56.0948 34.0079C55.6452 34.1638 55.1683 34.225 54.694 34.1877Z"/>
</mask>
<path d="M54.694 24.9453H44.5096L51.714 17.7329C52.8024 16.6445 53.4138 15.1683 53.4138 13.6291C53.4138 12.0899 52.8024 10.6138 51.714 9.52537C50.6256 8.43699 49.1495 7.82554 47.6103 7.82554C46.071 7.82554 44.5949 8.43699 43.5065 9.52537L36.302 16.7378V6.55337C36.302 5.01422 35.6906 3.53811 34.6023 2.44977C33.5139 1.36142 32.0378 0.75 30.4987 0.75C28.9595 0.75 27.4834 1.36142 26.3951 2.44977C25.3067 3.53811 24.6953 5.01422 24.6953 6.55337V16.7378L17.4829 9.53599C16.3787 8.53731 14.933 8.0012 13.4446 8.03851C11.9563 8.07582 10.5392 8.6837 9.48645 9.73645C8.4337 10.7892 7.82582 12.2063 7.78851 13.6946C7.7512 15.183 8.28731 16.6287 9.28599 17.7329L16.4878 24.9453H6.30337C4.76422 24.9453 3.28811 25.5567 2.19977 26.6451C1.11142 27.7334 0.5 29.2095 0.5 30.7487C0.5 32.2878 1.11142 33.7639 2.19977 34.8523C3.28811 35.9406 4.76422 36.552 6.30337 36.552H16.4878L9.28599 43.7538C8.72015 44.2859 8.26688 44.9262 7.95304 45.6367C7.6392 46.3472 7.47118 47.1135 7.45894 47.8901C7.44669 48.6667 7.59047 49.4379 7.88175 50.1579C8.17303 50.878 8.60589 51.5322 9.15467 52.0819C9.70345 52.6315 10.357 53.0654 11.0765 53.3579C11.7961 53.6503 12.5671 53.7954 13.3437 53.7844C14.1203 53.7734 14.8869 53.6066 15.5979 53.2939C16.3089 52.9812 16.9499 52.529 17.4829 51.964L24.6847 44.7622V54.9466C24.6847 55.7087 24.8348 56.4634 25.1264 57.1675C25.4181 57.8716 25.8456 58.5113 26.3845 59.0502C26.9233 59.5891 27.5631 60.0166 28.2672 60.3082C28.9713 60.5999 29.7259 60.75 30.4881 60.75C31.2502 60.75 32.0048 60.5999 32.7089 60.3082C33.413 60.0166 34.0528 59.5891 34.5917 59.0502C35.1306 58.5113 35.558 57.8716 35.8497 57.1675C36.1413 56.4634 36.2914 55.7087 36.2914 54.9466V44.7596L43.5038 51.964C44.0429 52.5031 44.6829 52.9307 45.3873 53.2225C46.0916 53.5142 46.8465 53.6644 47.6089 53.6644C48.3713 53.6644 49.1262 53.5142 49.8306 53.2225C50.5349 52.9307 51.1749 52.5031 51.714 51.964C52.2531 51.4249 52.6807 50.7849 52.9725 50.0806C53.2642 49.3762 53.4144 48.6213 53.4144 47.8589C53.4144 47.0965 53.2642 46.3416 52.9725 45.6373C52.6807 44.9329 52.2531 44.2929 51.714 43.7538L44.5122 36.552H54.6966C56.2358 36.552 57.7119 35.9406 58.8002 34.8523C59.8886 33.7639 60.5 32.2878 60.5 30.7487C60.5 29.2095 59.8886 27.7334 58.8002 26.6451C57.7119 25.5567 56.2358 24.9453 54.6966 24.9453H54.694ZM54.694 34.1877H38.8017L50.0396 45.4256C50.5977 46.0863 50.8872 46.9324 50.851 47.7965C50.8147 48.6605 50.4551 49.4794 49.8436 50.091C49.2321 50.7025 48.4132 51.062 47.5491 51.0983C46.6851 51.1346 45.8389 50.845 45.1782 50.2869L33.9351 39.0491V54.944C33.9747 55.4195 33.9153 55.8981 33.7605 56.3495C33.6058 56.8009 33.3591 57.2153 33.036 57.5664C32.7129 57.9176 32.3205 58.1979 31.8835 58.3897C31.4465 58.5814 30.9745 58.6804 30.4973 58.6804C30.0202 58.6804 29.5482 58.5814 29.1112 58.3897C28.6742 58.1979 28.2818 57.9176 27.9587 57.5664C27.6356 57.2153 27.3889 56.8009 27.2341 56.3495C27.0794 55.8981 27.02 55.4195 27.0596 54.944V39.0491L15.8217 50.2896C15.513 50.6525 15.1324 50.9474 14.704 51.1559C14.2756 51.3644 13.8087 51.4819 13.3326 51.501C12.8566 51.5201 12.3817 51.4403 11.938 51.2668C11.4943 51.0932 11.0913 50.8297 10.7545 50.4927C10.4177 50.1557 10.1544 49.7526 9.9811 49.3088C9.80781 48.865 9.72833 48.3901 9.74767 47.9141C9.76701 47.438 9.88475 46.9711 10.0935 46.5428C10.3022 46.1146 10.5974 45.7341 10.9604 45.4256L22.1983 34.1851H6.30337C5.43795 34.117 4.62999 33.7252 4.04071 33.0877C3.45142 32.4503 3.12413 31.6141 3.12413 30.746C3.12413 29.8779 3.45142 29.0417 4.04071 28.4043C4.62999 27.7669 5.43795 27.375 6.30337 27.307H22.2009L10.9604 16.0717C10.5957 15.7637 10.2989 15.3833 10.0888 14.9546C9.87874 14.5259 9.75992 14.0583 9.73988 13.5813C9.71984 13.1043 9.79902 12.6284 9.97242 12.1836C10.1458 11.7388 10.4096 11.3348 10.7472 10.9972C11.0848 10.6596 11.4888 10.3958 11.9336 10.2224C12.3784 10.049 12.8543 9.96984 13.3313 9.98988C13.8083 10.0099 14.2759 10.1287 14.7046 10.3388C15.1333 10.5489 15.5137 10.8457 15.8217 11.2104L27.0623 22.4483V6.55337C27.0226 6.07784 27.082 5.59925 27.2368 5.14785C27.3916 4.69646 27.6383 4.28208 27.9614 3.93091C28.2845 3.57975 28.6769 3.29943 29.1139 3.10769C29.5508 2.91594 30.0228 2.81694 30.5 2.81694C30.9772 2.81694 31.4492 2.91594 31.8861 3.10769C32.3231 3.29943 32.7155 3.57975 33.0386 3.93091C33.3617 4.28208 33.6084 4.69646 33.7632 5.14785C33.918 5.59925 33.9774 6.07784 33.9377 6.55337V22.4483L45.1782 11.2104C45.4972 10.8907 45.8761 10.6371 46.2932 10.4641C46.7102 10.2911 47.1574 10.202 47.6089 10.202C48.0605 10.202 48.5076 10.2911 48.9247 10.4641C49.3418 10.6371 49.7207 10.8907 50.0396 11.2104C50.6813 11.8566 51.0414 12.7304 51.0414 13.6411C51.0414 14.5518 50.6813 15.4255 50.0396 16.0717L38.7991 27.3096H54.694C55.1683 27.2723 55.6452 27.3336 56.0948 27.4895C56.5443 27.6454 56.9567 27.8926 57.3061 28.2156C57.6555 28.5386 57.9343 28.9304 58.1249 29.3663C58.3156 29.8022 58.414 30.2729 58.414 30.7487C58.414 31.2245 58.3156 31.6951 58.1249 32.1311C57.9343 32.567 57.6555 32.9588 57.3061 33.2817C56.9567 33.6047 56.5443 33.8519 56.0948 34.0079C55.6452 34.1638 55.1683 34.225 54.694 34.1877Z" fill="white" fill-opacity="0.5" stroke="white" stroke-width="2" mask="url(#path-1-inside-1_616_530)"/>
</svg>
