<svg width="65" height="61" viewBox="0 0 65 61" fill="none" xmlns="http://www.w3.org/2000/svg">
<path d="M51.7909 27.686V27.9747L52.0409 28.119L64.4609 35.2906V51.5435L50.7234 59.4751L50.723 59.4753L50.3868 59.6698L32.7549 49.4848L32.5048 49.3404L32.2547 49.4848L14.9485 59.4778L14.9481 59.478L14.6118 59.6725L0.538086 51.5462V35.2933L12.966 28.119L13.216 27.9747V27.686V21.9553L18.1781 19.0912L18.4282 18.9468V18.6581V8.95383L32.5047 0.827352L46.5788 8.95381V18.6581V18.9468L46.8288 19.0912L51.7909 21.9553V27.686ZM50.4531 23.0209V22.7323L50.2033 22.588L47.3369 20.9312L46.5866 20.4976V21.3641V24.6855V24.974L46.8364 25.1184L49.7029 26.7751L50.4531 27.2087V26.3422V23.0209ZM32.7548 18.546L32.505 18.4017L32.2551 18.5458L20.0242 25.5961L19.7739 25.7404V26.0293V31.7937V32.0821L20.0236 32.2265L32.2545 39.2979L32.5046 39.4425L32.7548 39.298L44.9831 32.2372L45.233 32.0928V31.8042V26.0398V25.7511L44.9831 25.6068L32.7548 18.546ZM19.7739 23.3233V24.1895L20.5239 23.7563L30.4091 18.0471L31.1595 17.6138L30.4088 17.181L27.5397 15.5269L27.2898 15.3827L27.0399 15.5271L20.0238 19.5795L19.7739 19.7238V20.0124V23.3233ZM34.5981 17.181L33.8475 17.6138L34.5978 18.0471L44.483 23.7563L45.233 24.1895V23.3233V20.0098V19.7211L44.983 19.5768L37.9669 15.527L37.717 15.3828L37.4672 15.5269L34.5981 17.181ZM47.3287 26.961L46.5788 26.5283V27.3941V32.8566L32.502 40.9832L18.4282 32.867V27.3941V26.531L17.6794 26.9604L14.813 28.6039L14.5618 28.748V29.0377V37.1425V37.4311L14.8116 37.5754L32.2546 47.6552L32.5047 47.7997L32.7548 47.6553L50.1952 37.5861L50.4452 37.4417V37.153V29.0482V28.7595L50.1951 28.6151L47.3287 26.961ZM20.0239 9.57068L19.7739 9.71502V10.0037V17.3038V18.1699L20.5239 17.7368L27.2926 13.8288L32.2547 16.6954L32.5048 16.8399L32.7549 16.6954L37.7169 13.8288L44.483 17.7368L45.233 18.17V17.3038V10.0116V9.72304L44.9832 9.57867L32.7523 2.50995L32.5023 2.36541L32.2521 2.50985L20.0239 9.57068ZM14.8115 22.588L14.5618 22.7323V23.0209V26.3422V27.2108L15.3128 26.7746L18.1793 25.11L18.4282 24.9654V24.6776V21.3641V20.4976L17.678 20.9312L14.8115 22.588ZM14.3621 57.977L14.6121 58.1214L14.8621 57.977L30.4091 48.9991L31.1589 48.5661L30.4091 48.1331L13.216 38.2056V30.392V29.526L12.466 29.959L2.13118 35.9259L1.88118 36.0702V36.3589V50.4832V50.7719L2.1312 50.9162L14.3621 57.977ZM62.8758 50.9135L63.1257 50.7692V50.4805V36.3589V36.0702L62.8757 35.9259L52.5409 29.959L51.7909 29.526V30.392V38.2081L34.5979 48.1331L33.8479 48.566L34.5978 48.9991L50.1448 57.977L50.3949 58.1214L50.6449 57.977L62.8758 50.9135Z" fill="white" fill-opacity="0.5" stroke="white"/>
</svg>
