<svg width="61" height="61" viewBox="0 0 61 61" fill="none" xmlns="http://www.w3.org/2000/svg">
<mask id="path-1-inside-1_616_443" fill="white">
<path d="M60.5 30.1239C60.4985 29.3714 60.4525 28.6196 60.3621 27.8726C59.6714 20.6763 56.4068 13.9713 51.1686 8.9908C45.9305 4.01026 39.0711 1.08895 31.8517 0.764071C31.7279 0.764071 31.6069 0.764071 31.4832 0.750001H31.064H30.7827H30.5014C23.0427 0.748538 15.8511 3.52701 10.3295 8.54331C4.808 13.5596 1.35272 20.4539 0.63784 27.881C0.54747 28.628 0.501443 29.3798 0.5 30.1323C0.5 30.2027 0.5 30.2702 0.5 30.3377C0.5 30.4756 0.5 30.6191 0.5 30.7486C0.502983 38.706 3.66477 46.3365 9.29019 51.9625C14.9156 57.5884 22.5442 60.7493 30.4986 60.75H30.7799H31.0612H31.4803C31.6041 60.75 31.7251 60.75 31.8489 60.75C39.5691 60.4027 46.8576 57.0884 52.1952 51.4976C57.5329 45.9069 60.5078 38.4711 60.5 30.7402C60.5 30.6051 60.5 30.4587 60.5 30.3293C60.4944 30.2618 60.5 30.1942 60.5 30.1239ZM31.7223 58.2145H31.3538H31.0725H30.6927C26.3549 58.1971 22.2004 56.463 19.1366 53.3911C17.7914 52.0483 16.6866 50.4843 15.8706 48.7674C17.0628 48.9973 18.2741 49.1132 19.4882 49.1136C23.437 49.1183 27.2878 47.8841 30.4986 45.5847C32.6817 47.1434 35.1705 48.221 37.8007 48.7464C40.4309 49.2717 43.1426 49.2329 45.7567 48.6324C44.5093 51.3551 42.5434 53.686 40.0705 55.3744C37.5977 57.0628 34.7114 58.0447 31.7223 58.2145ZM3.13303 28.1371C3.46578 25.3939 4.48225 22.7784 6.08908 20.5307C7.69591 18.2831 9.84157 16.4754 12.329 15.2737C11.6899 17.9178 11.6269 20.6685 12.1444 23.3391C12.6618 26.0096 13.7474 28.5376 15.3277 30.7514C12.42 34.8275 11.2419 39.8887 12.0505 44.8305C9.36087 43.4735 7.09567 41.4033 5.50223 38.846C3.90879 36.2887 3.04835 33.3425 3.01489 30.3293C3.02614 29.592 3.06552 28.8613 3.13303 28.1371ZM30.7011 3.24332H31.0612H31.3425L31.711 3.25739C35.7477 3.47904 39.5609 5.18243 42.4204 8.0414C43.432 9.05776 44.3085 10.2003 45.0281 11.4409C42.5142 10.969 39.9309 11.0113 37.4338 11.565C34.9368 12.1188 32.5776 13.1727 30.4986 14.663C26.47 11.7909 21.4806 10.6037 16.5908 11.3536C17.294 10.1564 18.1445 9.05214 19.1225 8.06673C22.1884 4.99273 26.3464 3.25848 30.6871 3.24332H30.7011ZM47.2701 19.7228C47.276 22.9218 46.345 26.0525 44.5921 28.7281C42.607 26.6215 40.1669 24.9967 37.4581 23.9778C36.4594 21.0646 34.768 18.4378 32.5296 16.3234C34.554 15.0029 36.8438 14.1435 39.2369 13.806C41.6299 13.4685 44.0679 13.6612 46.3784 14.3704C46.965 16.0936 47.2616 17.9024 47.2561 19.7228H47.2701ZM30.4986 42.3794C30.2848 42.1824 30.071 41.9854 29.8656 41.78C28.8537 40.766 27.9771 39.6252 27.2579 38.3861C29.3759 38.7872 31.5466 38.8253 33.6774 38.4987C32.9742 39.6959 32.1236 40.8002 31.1456 41.7856C30.929 41.9854 30.7152 42.1824 30.4986 42.3794ZM30.7799 36.2024C29.1361 36.2045 27.5013 35.9598 25.9302 35.4763C24.8998 32.4677 24.7591 29.2256 25.5251 26.1391C28.726 25.0613 32.1807 24.9936 35.4215 25.9449C36.2558 29.15 36.1107 32.5317 35.0051 35.6536C33.6264 36.0187 32.2061 36.2032 30.7799 36.2024ZM22.9821 34.2325C21.5654 33.4684 20.2672 32.5024 19.1282 31.3649C18.9228 31.1595 18.7259 30.9456 18.529 30.7289C18.7259 30.5122 18.9228 30.3011 19.1282 30.0957C20.1983 29.0265 21.4098 28.109 22.7289 27.3688C22.3947 29.653 22.4805 31.9791 22.9821 34.2325ZM30.4986 17.8711C30.7152 18.0653 30.929 18.2651 31.1343 18.4706C32.4826 19.8197 33.5867 21.3927 34.3975 23.1195C31.7981 22.6132 29.1215 22.6583 26.5406 23.2518C27.3569 21.4727 28.4828 19.8528 29.8656 18.4677C30.071 18.2651 30.2848 18.0653 30.4986 17.8711ZM38.2177 27.0536C39.7762 27.8426 41.2003 28.8731 42.4373 30.107C42.6436 30.3133 42.8433 30.5244 43.0364 30.7402C42.8423 30.9568 42.6426 31.1707 42.4373 31.3761C41.1271 32.6863 39.6054 33.7661 37.9363 34.5702C38.5313 32.1087 38.627 29.5528 38.2177 27.0536ZM19.4854 13.6415C22.683 13.6369 25.8121 14.5682 28.4872 16.3206C26.1797 18.4969 24.4535 21.2163 23.4659 24.2311C21.0134 25.2615 18.8044 26.7955 16.9818 28.7337C15.5932 26.6054 14.7152 24.1848 14.4166 21.661C14.1179 19.1371 14.4067 16.5784 15.2602 14.1846C16.6394 13.8228 18.0595 13.6402 19.4854 13.6415ZM14.3066 41.7631C14.3053 38.5631 15.2401 35.4328 16.9958 32.7579C18.95 34.8294 21.3435 36.4363 24.0004 37.4603C25.0273 39.9071 26.5547 42.1119 28.4844 43.9328C26.4906 45.2343 24.2386 46.0882 21.8833 46.4355C19.528 46.7829 17.1255 46.6155 14.841 45.9449C14.4847 44.5796 14.305 43.1742 14.3066 41.7631ZM41.5146 46.609C38.317 46.6136 35.1879 45.6824 32.5127 43.93C34.3764 42.1704 35.8653 40.0521 36.8899 37.7023C39.8175 36.7064 42.457 35.0089 44.578 32.7579C45.8157 34.6558 46.649 36.7886 47.026 39.0231C47.4031 41.2576 47.3157 43.5459 46.7694 45.7451C45.0761 46.3155 43.3013 46.6063 41.5146 46.6062V46.609ZM49.7653 41.7631C49.7737 37.8119 48.545 33.9572 46.2518 30.7402C48.5497 27.5268 49.7834 23.6738 49.7794 19.7228C49.7745 18.3329 49.6179 16.9476 49.3124 15.5917C50.7291 16.3558 52.0273 17.3218 53.1663 18.4593C55.7726 21.0629 57.4282 24.4674 57.8669 28.1258C57.9345 28.85 57.9739 29.5807 57.9851 30.318C57.9397 34.6189 56.2095 38.7303 53.1663 41.7687C52.0953 42.8362 50.884 43.7526 49.5656 44.4928C49.6971 43.5888 49.7638 42.6766 49.7653 41.7631ZM53.1044 15.0908C51.6409 13.961 50.0204 13.0508 48.2941 12.3892C47.5786 10.6804 46.6166 9.08564 45.4388 7.65587C48.4548 9.60963 51.0591 12.1355 53.1044 15.0908ZM11.0603 11.2945C12.765 9.59076 14.6847 8.11684 16.7708 6.91012C15.3586 8.45591 14.2113 10.2245 13.3754 12.1444C11.3991 12.8167 9.54747 13.8113 7.89556 15.088C8.83583 13.732 9.89491 12.4625 11.0603 11.2945ZM6.27805 43.7611C8.15034 45.5784 10.3767 46.9904 12.8184 47.9091C13.6602 50.3772 15.0008 52.6456 16.7567 54.573C12.3299 52.0109 8.7027 48.2674 6.28086 43.7611H6.27805ZM49.9369 50.1886C48.5675 51.556 47.059 52.7764 45.436 53.8301C46.936 51.9993 48.0808 49.9044 48.8117 47.6531C51.0069 46.7369 53.0107 45.4167 54.7191 43.7611C53.4461 46.1242 51.8361 48.2894 49.9397 50.1886H49.9369Z"/>
</mask>
<path d="M60.5 30.1239C60.4985 29.3714 60.4525 28.6196 60.3621 27.8726C59.6714 20.6763 56.4068 13.9713 51.1686 8.9908C45.9305 4.01026 39.0711 1.08895 31.8517 0.764071C31.7279 0.764071 31.6069 0.764071 31.4832 0.750001H31.064H30.7827H30.5014C23.0427 0.748538 15.8511 3.52701 10.3295 8.54331C4.808 13.5596 1.35272 20.4539 0.63784 27.881C0.54747 28.628 0.501443 29.3798 0.5 30.1323C0.5 30.2027 0.5 30.2702 0.5 30.3377C0.5 30.4756 0.5 30.6191 0.5 30.7486C0.502983 38.706 3.66477 46.3365 9.29019 51.9625C14.9156 57.5884 22.5442 60.7493 30.4986 60.75H30.7799H31.0612H31.4803C31.6041 60.75 31.7251 60.75 31.8489 60.75C39.5691 60.4027 46.8576 57.0884 52.1952 51.4976C57.5329 45.9069 60.5078 38.4711 60.5 30.7402C60.5 30.6051 60.5 30.4587 60.5 30.3293C60.4944 30.2618 60.5 30.1942 60.5 30.1239ZM31.7223 58.2145H31.3538H31.0725H30.6927C26.3549 58.1971 22.2004 56.463 19.1366 53.3911C17.7914 52.0483 16.6866 50.4843 15.8706 48.7674C17.0628 48.9973 18.2741 49.1132 19.4882 49.1136C23.437 49.1183 27.2878 47.8841 30.4986 45.5847C32.6817 47.1434 35.1705 48.221 37.8007 48.7464C40.4309 49.2717 43.1426 49.2329 45.7567 48.6324C44.5093 51.3551 42.5434 53.686 40.0705 55.3744C37.5977 57.0628 34.7114 58.0447 31.7223 58.2145ZM3.13303 28.1371C3.46578 25.3939 4.48225 22.7784 6.08908 20.5307C7.69591 18.2831 9.84157 16.4754 12.329 15.2737C11.6899 17.9178 11.6269 20.6685 12.1444 23.3391C12.6618 26.0096 13.7474 28.5376 15.3277 30.7514C12.42 34.8275 11.2419 39.8887 12.0505 44.8305C9.36087 43.4735 7.09567 41.4033 5.50223 38.846C3.90879 36.2887 3.04835 33.3425 3.01489 30.3293C3.02614 29.592 3.06552 28.8613 3.13303 28.1371ZM30.7011 3.24332H31.0612H31.3425L31.711 3.25739C35.7477 3.47904 39.5609 5.18243 42.4204 8.0414C43.432 9.05776 44.3085 10.2003 45.0281 11.4409C42.5142 10.969 39.9309 11.0113 37.4338 11.565C34.9368 12.1188 32.5776 13.1727 30.4986 14.663C26.47 11.7909 21.4806 10.6037 16.5908 11.3536C17.294 10.1564 18.1445 9.05214 19.1225 8.06673C22.1884 4.99273 26.3464 3.25848 30.6871 3.24332H30.7011ZM47.2701 19.7228C47.276 22.9218 46.345 26.0525 44.5921 28.7281C42.607 26.6215 40.1669 24.9967 37.4581 23.9778C36.4594 21.0646 34.768 18.4378 32.5296 16.3234C34.554 15.0029 36.8438 14.1435 39.2369 13.806C41.6299 13.4685 44.0679 13.6612 46.3784 14.3704C46.965 16.0936 47.2616 17.9024 47.2561 19.7228H47.2701ZM30.4986 42.3794C30.2848 42.1824 30.071 41.9854 29.8656 41.78C28.8537 40.766 27.9771 39.6252 27.2579 38.3861C29.3759 38.7872 31.5466 38.8253 33.6774 38.4987C32.9742 39.6959 32.1236 40.8002 31.1456 41.7856C30.929 41.9854 30.7152 42.1824 30.4986 42.3794ZM30.7799 36.2024C29.1361 36.2045 27.5013 35.9598 25.9302 35.4763C24.8998 32.4677 24.7591 29.2256 25.5251 26.1391C28.726 25.0613 32.1807 24.9936 35.4215 25.9449C36.2558 29.15 36.1107 32.5317 35.0051 35.6536C33.6264 36.0187 32.2061 36.2032 30.7799 36.2024ZM22.9821 34.2325C21.5654 33.4684 20.2672 32.5024 19.1282 31.3649C18.9228 31.1595 18.7259 30.9456 18.529 30.7289C18.7259 30.5122 18.9228 30.3011 19.1282 30.0957C20.1983 29.0265 21.4098 28.109 22.7289 27.3688C22.3947 29.653 22.4805 31.9791 22.9821 34.2325ZM30.4986 17.8711C30.7152 18.0653 30.929 18.2651 31.1343 18.4706C32.4826 19.8197 33.5867 21.3927 34.3975 23.1195C31.7981 22.6132 29.1215 22.6583 26.5406 23.2518C27.3569 21.4727 28.4828 19.8528 29.8656 18.4677C30.071 18.2651 30.2848 18.0653 30.4986 17.8711ZM38.2177 27.0536C39.7762 27.8426 41.2003 28.8731 42.4373 30.107C42.6436 30.3133 42.8433 30.5244 43.0364 30.7402C42.8423 30.9568 42.6426 31.1707 42.4373 31.3761C41.1271 32.6863 39.6054 33.7661 37.9363 34.5702C38.5313 32.1087 38.627 29.5528 38.2177 27.0536ZM19.4854 13.6415C22.683 13.6369 25.8121 14.5682 28.4872 16.3206C26.1797 18.4969 24.4535 21.2163 23.4659 24.2311C21.0134 25.2615 18.8044 26.7955 16.9818 28.7337C15.5932 26.6054 14.7152 24.1848 14.4166 21.661C14.1179 19.1371 14.4067 16.5784 15.2602 14.1846C16.6394 13.8228 18.0595 13.6402 19.4854 13.6415ZM14.3066 41.7631C14.3053 38.5631 15.2401 35.4328 16.9958 32.7579C18.95 34.8294 21.3435 36.4363 24.0004 37.4603C25.0273 39.9071 26.5547 42.1119 28.4844 43.9328C26.4906 45.2343 24.2386 46.0882 21.8833 46.4355C19.528 46.7829 17.1255 46.6155 14.841 45.9449C14.4847 44.5796 14.305 43.1742 14.3066 41.7631ZM41.5146 46.609C38.317 46.6136 35.1879 45.6824 32.5127 43.93C34.3764 42.1704 35.8653 40.0521 36.8899 37.7023C39.8175 36.7064 42.457 35.0089 44.578 32.7579C45.8157 34.6558 46.649 36.7886 47.026 39.0231C47.4031 41.2576 47.3157 43.5459 46.7694 45.7451C45.0761 46.3155 43.3013 46.6063 41.5146 46.6062V46.609ZM49.7653 41.7631C49.7737 37.8119 48.545 33.9572 46.2518 30.7402C48.5497 27.5268 49.7834 23.6738 49.7794 19.7228C49.7745 18.3329 49.6179 16.9476 49.3124 15.5917C50.7291 16.3558 52.0273 17.3218 53.1663 18.4593C55.7726 21.0629 57.4282 24.4674 57.8669 28.1258C57.9345 28.85 57.9739 29.5807 57.9851 30.318C57.9397 34.6189 56.2095 38.7303 53.1663 41.7687C52.0953 42.8362 50.884 43.7526 49.5656 44.4928C49.6971 43.5888 49.7638 42.6766 49.7653 41.7631ZM53.1044 15.0908C51.6409 13.961 50.0204 13.0508 48.2941 12.3892C47.5786 10.6804 46.6166 9.08564 45.4388 7.65587C48.4548 9.60963 51.0591 12.1355 53.1044 15.0908ZM11.0603 11.2945C12.765 9.59076 14.6847 8.11684 16.7708 6.91012C15.3586 8.45591 14.2113 10.2245 13.3754 12.1444C11.3991 12.8167 9.54747 13.8113 7.89556 15.088C8.83583 13.732 9.89491 12.4625 11.0603 11.2945ZM6.27805 43.7611C8.15034 45.5784 10.3767 46.9904 12.8184 47.9091C13.6602 50.3772 15.0008 52.6456 16.7567 54.573C12.3299 52.0109 8.7027 48.2674 6.28086 43.7611H6.27805ZM49.9369 50.1886C48.5675 51.556 47.059 52.7764 45.436 53.8301C46.936 51.9993 48.0808 49.9044 48.8117 47.6531C51.0069 46.7369 53.0107 45.4167 54.7191 43.7611C53.4461 46.1242 51.8361 48.2894 49.9397 50.1886H49.9369Z" fill="white" fill-opacity="0.5" stroke="white" stroke-width="2" mask="url(#path-1-inside-1_616_443)"/>
</svg>
