<svg width="63" height="61" viewBox="0 0 63 61" fill="none" xmlns="http://www.w3.org/2000/svg">
<path d="M53.9572 29.1353L53.9656 29.6267H54.4571H61.5025L61.4969 30.886H54.4495H53.9577L53.9496 31.3777C53.8565 36.9855 53.0618 42.1874 51.7492 46.5735C50.3409 51.2578 48.3783 54.98 45.9583 57.305C44.3556 58.8395 42.5095 59.7457 40.5514 59.747C39.0222 59.7193 37.5408 59.2085 36.3194 58.2876L36.0126 58.0562L35.7101 58.2932C34.5053 59.2371 33.019 59.75 31.4886 59.75C29.9581 59.75 28.4718 59.2371 27.267 58.2932L26.9644 58.0562L26.6576 58.2876C25.4364 59.2088 23.9551 59.7196 22.4258 59.747C20.4672 59.7457 18.6213 58.8441 17.0222 57.3058C15.4167 55.7612 14.0108 53.5885 12.8271 50.9192C10.5779 45.8316 9.17105 38.9834 9.04274 31.3775L9.03444 30.886H8.54281H1.49512V29.6267H8.54028H9.03207L9.04021 29.135C9.13325 23.5146 9.92794 18.3126 11.238 13.9265C12.6467 9.2384 14.5992 5.52018 17.0429 3.19621L17.0429 3.19622L17.0458 3.19345C18.6322 1.6605 20.4778 0.754263 22.4361 0.75299C23.9654 0.779206 25.4469 1.29009 26.6674 2.21213L26.9743 2.44402L27.2772 2.20677C28.4819 1.2629 29.9682 0.75 31.4987 0.75C33.0291 0.75 34.5155 1.2629 35.7202 2.20677L36.023 2.44397L36.3299 2.21219C37.5505 1.29042 39.0321 0.779544 40.5614 0.75299C42.5223 0.754263 44.3882 1.65024 45.9853 3.18663C47.5908 4.7311 48.9965 6.90361 50.1802 9.57274C52.4269 14.6679 53.8263 21.5163 53.9572 29.1353ZM52.1978 29.6216H52.707L52.6978 29.1126C52.5983 23.6214 51.8333 18.5326 50.5518 14.2881C49.2072 9.76142 47.2645 6.16309 45.0989 4.10552C43.6446 2.7201 42.1285 2.01164 40.5554 2.0173L40.5554 2.01726L40.5491 2.01736C39.4642 2.03484 38.4063 2.35893 37.4977 2.95219L36.9977 3.27868L37.407 3.71353C38.8164 5.21097 40.0522 7.19983 41.1133 9.58914C43.3624 14.6767 44.7691 21.5246 44.8974 29.1301L44.9057 29.6216H45.3973H52.1978ZM35.6684 56.0323L36.0289 56.4066L36.389 56.032C37.6996 54.6687 38.9215 52.7427 39.963 50.3973L39.9634 50.3965C42.1109 45.5357 43.513 38.8161 43.6405 31.3819L43.6493 30.8733H43.1406H36.3426H35.8509L35.8427 31.365C35.7497 36.9728 34.9549 42.1748 33.6448 46.5611C33.2556 47.8628 32.7982 49.1431 32.2746 50.3968L32.19 50.5994L32.2818 50.7987C33.2778 52.9605 34.4308 54.7472 35.6684 56.0323ZM26.6083 56.032L26.9681 56.4062L27.3286 56.0327C28.5662 54.7501 29.7245 52.9608 30.7231 50.7937L30.8154 50.5934L30.7297 50.3901C28.6066 45.3572 27.2855 38.7158 27.1597 31.3622L27.1513 30.8708H26.6598H19.8567H19.3476L19.3568 31.3798C19.4563 36.8688 20.2214 41.9604 21.503 46.2051C22.7793 50.4838 24.5852 53.9273 26.6083 56.032ZM27.3286 4.45465L26.4688 3.56377V4.61206C25.2105 5.9565 24.036 7.82641 23.0365 10.0909C20.889 14.9516 19.4869 21.6713 19.3594 29.1055L19.3506 29.614H19.8593H26.6522H27.1438L27.1521 29.1226C27.2477 23.5144 28.0399 18.3124 29.3525 13.9265L29.3526 13.9259C29.7407 12.6241 30.198 11.344 30.7226 10.0909L30.8073 9.88861L30.7158 9.68926C29.7222 7.5243 28.5689 5.73985 27.3286 4.45465ZM32.437 14.2819L32.4342 14.2823C32.2864 13.786 32.1333 13.3092 31.9724 12.8445L31.4963 11.4691L31.0267 12.8467C29.4879 17.3605 28.5237 22.9851 28.4191 29.108L28.4104 29.6166H28.919H34.0834H34.5925L34.5833 29.1075C34.4838 23.6159 33.7187 18.5267 32.437 14.2819ZM28.9165 30.8606H28.4074L28.4166 31.3697C28.5155 36.8283 29.2727 41.8938 30.5415 46.1244V46.1281L30.562 46.1974C30.7089 46.695 30.866 47.1763 31.0252 47.6336L31.5021 49.0026L31.9706 47.6307C33.512 43.1168 34.4762 37.4921 34.5808 31.3692L34.5895 30.8606H34.0809H28.9165ZM35.8376 29.1351L35.8459 29.6267H36.3376H43.1406H43.65L43.6405 29.1174C43.5385 23.6264 42.7735 18.5377 41.4921 14.2931C40.2135 10.0025 38.41 6.55452 36.3822 4.46622L36.0213 4.09447L35.6626 4.46846C34.4312 5.75265 33.2731 7.53613 32.2766 9.70421L32.1846 9.90438L32.2702 10.1074C34.3933 15.1403 35.7144 21.7791 35.8376 29.1351ZM34.6525 3.70065L35.0427 3.27393L34.5641 2.94941C33.6591 2.33576 32.5908 2.00772 31.4974 2.00772C30.404 2.00772 29.3357 2.33576 28.4307 2.94941L27.9523 3.27386L28.3423 3.70058C29.4063 4.86464 30.318 6.15925 31.0555 7.55326L31.4975 8.38889L31.9394 7.55318C32.6766 6.15906 33.5883 4.86448 34.6525 3.70065ZM22.4358 2.00977L22.4358 2.00968L22.4266 2.0097C20.856 2.01252 19.3226 2.72697 17.8867 4.10706C16.4555 5.48273 15.1057 7.53723 13.9768 10.0908C11.8214 14.9522 10.4271 21.6721 10.2996 29.1181L10.2909 29.6267H10.7995H17.5975H18.0891L18.0974 29.1352C18.193 23.5151 18.9876 18.3129 20.2877 13.9263C21.5977 9.56993 23.3867 6.04637 25.5786 3.70495L25.9858 3.27001L25.4868 2.94448C24.5781 2.35171 23.5205 2.02769 22.4358 2.00977ZM17.8891 56.3825L18.0338 56.5198H18.0488C19.4572 57.8114 20.9219 58.4757 22.4454 58.4675L22.4499 58.4674C23.5351 58.4519 24.5935 58.1285 25.5022 57.5351L26.0017 57.2089L25.5932 56.7741C24.1835 55.2738 22.9451 53.2849 21.8869 50.8989C19.6377 45.8113 18.2308 38.9631 18.1025 31.3573L18.0942 30.8657H17.6026H10.7869H10.2775L10.2869 31.375C10.389 36.8635 11.154 41.9548 12.4354 46.1993C13.78 50.7261 15.7205 54.3248 17.8891 56.3825ZM28.3318 56.7871L27.9416 57.2148L28.4216 57.5386C29.3273 58.1495 30.3948 58.4759 31.4873 58.4759C32.5797 58.4759 33.6473 58.1495 34.553 57.5386L35.0338 57.2143L34.6422 56.7865C33.5774 55.6233 32.6658 54.3288 31.9294 52.9344L31.4882 52.0988L31.0455 52.9337C30.3067 54.3272 29.3949 55.6219 28.3318 56.7871ZM40.5468 58.475V58.4751H40.5546C42.1285 58.4751 43.6597 57.7602 45.0976 56.3806C46.4756 55.0585 47.7735 53.1097 48.8743 50.6944H48.8884L49.0203 50.3973C51.1785 45.5355 52.5703 38.8102 52.6927 31.3815L52.7011 30.8733H52.1928H45.3948H44.903L44.8949 31.365C44.8018 36.9728 44.0071 42.1748 42.6945 46.5609C41.3871 50.9146 39.5981 54.4383 37.4036 56.7824L36.9961 57.2177L37.4957 57.5431C38.4046 58.135 39.4623 58.4581 40.5468 58.475Z" fill="white" fill-opacity="0.5" stroke="white"/>
</svg>
