<svg width="61" height="61" viewBox="0 0 61 61" fill="none" xmlns="http://www.w3.org/2000/svg">
<mask id="path-1-inside-1_616_551" fill="white">
<path d="M57.1594 25.948H54.2533C53.3675 25.9485 52.5181 26.3006 51.8918 26.9267C51.2654 27.5529 50.9133 28.402 50.9127 29.2876H35.2937C34.7 29.2878 34.1172 29.1288 33.606 28.8272L39.4249 23.0101C39.6038 23.1891 39.8162 23.3311 40.0501 23.428C40.284 23.5249 40.5346 23.5748 40.7878 23.5748C41.041 23.5748 41.2916 23.5249 41.5255 23.428C41.7593 23.3311 41.9718 23.1891 42.1507 23.0101L43.3367 21.8266C43.5158 21.6478 43.6578 21.4354 43.7548 21.2016C43.8517 20.9678 43.9016 20.7172 43.9016 20.4641C43.9016 20.211 43.8517 19.9604 43.7548 19.7266C43.6578 19.4928 43.5158 19.2804 43.3367 19.1015L42.1507 17.916C41.9718 17.7369 41.7593 17.5949 41.5255 17.498C41.2916 17.4011 41.041 17.3512 40.7878 17.3512C40.5346 17.3512 40.284 17.4011 40.0501 17.498C39.8162 17.5949 39.6038 17.7369 39.4249 17.916L38.2389 19.1015C37.8778 19.4631 37.6749 19.9531 37.6749 20.4641C37.6749 20.975 37.8778 21.4651 38.2389 21.8266L32.4288 27.646C32.123 27.1323 31.9617 26.5457 31.9618 25.948V10.3334C32.8476 10.3329 33.6969 9.98084 34.3233 9.35466C34.9496 8.72849 35.3018 7.87938 35.3023 6.99384V4.08851C35.3021 3.6493 35.2152 3.21445 35.0466 2.80883C34.8781 2.40321 34.6313 2.03479 34.3202 1.72462C34.0091 1.41445 33.64 1.16863 33.2338 1.00121C32.8276 0.833785 32.3924 0.748051 31.9531 0.748908H29.0469C28.1611 0.749483 27.3118 1.10152 26.6854 1.72769C26.0591 2.35386 25.7069 3.20297 25.7063 4.08851V6.99384C25.7069 7.87938 26.0591 8.72849 26.6854 9.35466C27.3118 9.98084 28.1611 10.3329 29.0469 10.3334V25.948C29.0474 26.5438 28.8876 27.1288 28.5843 27.6416L22.7676 21.8266C23.1288 21.4651 23.3316 20.975 23.3316 20.4641C23.3316 19.9531 23.1288 19.4631 22.7676 19.1015L21.5817 17.916C21.4027 17.7369 21.1903 17.5949 20.9564 17.498C20.7226 17.4011 20.4719 17.3512 20.2187 17.3512C19.9656 17.3512 19.7149 17.4011 19.481 17.498C19.2472 17.5949 19.0347 17.7369 18.8558 17.916L17.6699 19.1015C17.4908 19.2804 17.3487 19.4928 17.2518 19.7266C17.1548 19.9604 17.1049 20.211 17.1049 20.4641C17.1049 20.7172 17.1548 20.9678 17.2518 21.2016C17.3487 21.4354 17.4908 21.6478 17.6699 21.8266L18.8558 23.0101C19.0347 23.1891 19.2472 23.3311 19.481 23.428C19.7149 23.5249 19.9656 23.5748 20.2187 23.5748C20.4719 23.5748 20.7226 23.5249 20.9564 23.428C21.1903 23.3311 21.4027 23.1891 21.5817 23.0101L27.3983 28.8251C26.8861 29.1283 26.3017 29.2881 25.7063 29.2876H10.0873C10.0867 28.402 9.7346 27.5529 9.10825 26.9267C8.48189 26.3006 7.63254 25.9485 6.74674 25.948H3.84057C2.95477 25.9485 2.10542 26.3006 1.47907 26.9267C0.852712 27.5529 0.500575 28.402 0.5 29.2876V32.1929C0.500575 33.0784 0.852712 33.9275 1.47907 34.5537C2.10542 35.1799 2.95477 35.5319 3.84057 35.5325H6.74674C7.63254 35.5319 8.48189 35.1799 9.10825 34.5537C9.7346 33.9275 10.0867 33.0784 10.0873 32.1929H25.7063C26.3042 32.1928 26.8911 32.3541 27.4049 32.6597L21.5686 38.4856C21.3897 38.3065 21.1772 38.1645 20.9434 38.0676C20.7095 37.9707 20.4588 37.9208 20.2057 37.9208C19.9525 37.9208 19.7019 37.9707 19.468 38.0676C19.2341 38.1645 19.0217 38.3065 18.8427 38.4856L17.659 39.6712C17.4799 39.85 17.3378 40.0624 17.2409 40.2962C17.144 40.53 17.0941 40.7806 17.0941 41.0337C17.0941 41.2868 17.144 41.5374 17.2409 41.7712C17.3378 42.005 17.4799 42.2174 17.659 42.3963L18.8449 43.5819C19.0238 43.7609 19.2363 43.9029 19.4702 43.9998C19.704 44.0967 19.9547 44.1466 20.2079 44.1466C20.461 44.1466 20.7117 44.0967 20.9456 43.9998C21.1794 43.9029 21.3919 43.7609 21.5708 43.5819L22.7567 42.3963C23.1179 42.0347 23.3208 41.5447 23.3208 41.0337C23.3208 40.5228 23.1179 40.0327 22.7567 39.6712L28.5821 33.8453C28.8838 34.3564 29.0428 34.9391 29.0426 35.5325V51.1665C28.1566 51.1665 27.3069 51.5184 26.6804 52.1447C26.054 52.771 25.702 53.6204 25.702 54.5061V57.4093C25.702 58.2952 26.0539 59.1449 26.6803 59.7715C27.3067 60.3982 28.1564 60.7505 29.0426 60.7511H31.9487C32.3876 60.7511 32.8222 60.6646 33.2276 60.4967C33.6331 60.3287 34.0014 60.0825 34.3117 59.7722C34.6219 59.4618 34.8679 59.0934 35.0357 58.688C35.2034 58.2825 35.2896 57.848 35.2893 57.4093V54.504C35.2896 54.0653 35.2034 53.6309 35.0356 53.2256C34.8678 52.8203 34.6218 52.452 34.3115 52.1419C34.0013 51.8317 33.6329 51.5857 33.2275 51.418C32.822 51.2503 32.3875 51.1641 31.9487 51.1644V35.5303C31.9482 34.9352 32.108 34.3509 32.4114 33.8388L38.2346 39.6625C37.8734 40.024 37.6706 40.5141 37.6706 41.025C37.6706 41.536 37.8734 42.0261 38.2346 42.3876L39.4205 43.5732C39.5994 43.7522 39.8119 43.8942 40.0458 43.9911C40.2796 44.0881 40.5303 44.1379 40.7835 44.1379C41.0366 44.1379 41.2873 44.0881 41.5211 43.9911C41.755 43.8942 41.9675 43.7522 42.1464 43.5732L43.3323 42.3876C43.5114 42.2087 43.6535 41.9963 43.7504 41.7625C43.8474 41.5287 43.8973 41.2781 43.8973 41.025C43.8973 40.772 43.8474 40.5214 43.7504 40.2876C43.6535 40.0538 43.5114 39.8414 43.3323 39.6625L42.1464 38.4769C41.9675 38.2979 41.755 38.1558 41.5211 38.0589C41.2873 37.962 41.0366 37.9121 40.7835 37.9121C40.5303 37.9121 40.2796 37.962 40.0458 38.0589C39.8119 38.1558 39.5994 38.2979 39.4205 38.4769L33.5951 32.6532C34.1082 32.35 34.6933 32.1902 35.2893 32.1907H50.9127C50.9127 33.0764 51.2646 33.9259 51.8911 34.5522C52.5176 35.1785 53.3673 35.5303 54.2533 35.5303H57.1594C58.0454 35.5303 58.8951 35.1785 59.5216 34.5522C60.148 33.9259 60.5 33.0764 60.5 32.1907V29.2876C60.4994 28.402 60.1473 27.5529 59.5209 26.9267C58.8946 26.3006 58.0452 25.9485 57.1594 25.948Z"/>
</mask>
<path d="M57.1594 25.948H54.2533C53.3675 25.9485 52.5181 26.3006 51.8918 26.9267C51.2654 27.5529 50.9133 28.402 50.9127 29.2876H35.2937C34.7 29.2878 34.1172 29.1288 33.606 28.8272L39.4249 23.0101C39.6038 23.1891 39.8162 23.3311 40.0501 23.428C40.284 23.5249 40.5346 23.5748 40.7878 23.5748C41.041 23.5748 41.2916 23.5249 41.5255 23.428C41.7593 23.3311 41.9718 23.1891 42.1507 23.0101L43.3367 21.8266C43.5158 21.6478 43.6578 21.4354 43.7548 21.2016C43.8517 20.9678 43.9016 20.7172 43.9016 20.4641C43.9016 20.211 43.8517 19.9604 43.7548 19.7266C43.6578 19.4928 43.5158 19.2804 43.3367 19.1015L42.1507 17.916C41.9718 17.7369 41.7593 17.5949 41.5255 17.498C41.2916 17.4011 41.041 17.3512 40.7878 17.3512C40.5346 17.3512 40.284 17.4011 40.0501 17.498C39.8162 17.5949 39.6038 17.7369 39.4249 17.916L38.2389 19.1015C37.8778 19.4631 37.6749 19.9531 37.6749 20.4641C37.6749 20.975 37.8778 21.4651 38.2389 21.8266L32.4288 27.646C32.123 27.1323 31.9617 26.5457 31.9618 25.948V10.3334C32.8476 10.3329 33.6969 9.98084 34.3233 9.35466C34.9496 8.72849 35.3018 7.87938 35.3023 6.99384V4.08851C35.3021 3.6493 35.2152 3.21445 35.0466 2.80883C34.8781 2.40321 34.6313 2.03479 34.3202 1.72462C34.0091 1.41445 33.64 1.16863 33.2338 1.00121C32.8276 0.833785 32.3924 0.748051 31.9531 0.748908H29.0469C28.1611 0.749483 27.3118 1.10152 26.6854 1.72769C26.0591 2.35386 25.7069 3.20297 25.7063 4.08851V6.99384C25.7069 7.87938 26.0591 8.72849 26.6854 9.35466C27.3118 9.98084 28.1611 10.3329 29.0469 10.3334V25.948C29.0474 26.5438 28.8876 27.1288 28.5843 27.6416L22.7676 21.8266C23.1288 21.4651 23.3316 20.975 23.3316 20.4641C23.3316 19.9531 23.1288 19.4631 22.7676 19.1015L21.5817 17.916C21.4027 17.7369 21.1903 17.5949 20.9564 17.498C20.7226 17.4011 20.4719 17.3512 20.2187 17.3512C19.9656 17.3512 19.7149 17.4011 19.481 17.498C19.2472 17.5949 19.0347 17.7369 18.8558 17.916L17.6699 19.1015C17.4908 19.2804 17.3487 19.4928 17.2518 19.7266C17.1548 19.9604 17.1049 20.211 17.1049 20.4641C17.1049 20.7172 17.1548 20.9678 17.2518 21.2016C17.3487 21.4354 17.4908 21.6478 17.6699 21.8266L18.8558 23.0101C19.0347 23.1891 19.2472 23.3311 19.481 23.428C19.7149 23.5249 19.9656 23.5748 20.2187 23.5748C20.4719 23.5748 20.7226 23.5249 20.9564 23.428C21.1903 23.3311 21.4027 23.1891 21.5817 23.0101L27.3983 28.8251C26.8861 29.1283 26.3017 29.2881 25.7063 29.2876H10.0873C10.0867 28.402 9.7346 27.5529 9.10825 26.9267C8.48189 26.3006 7.63254 25.9485 6.74674 25.948H3.84057C2.95477 25.9485 2.10542 26.3006 1.47907 26.9267C0.852712 27.5529 0.500575 28.402 0.5 29.2876V32.1929C0.500575 33.0784 0.852712 33.9275 1.47907 34.5537C2.10542 35.1799 2.95477 35.5319 3.84057 35.5325H6.74674C7.63254 35.5319 8.48189 35.1799 9.10825 34.5537C9.7346 33.9275 10.0867 33.0784 10.0873 32.1929H25.7063C26.3042 32.1928 26.8911 32.3541 27.4049 32.6597L21.5686 38.4856C21.3897 38.3065 21.1772 38.1645 20.9434 38.0676C20.7095 37.9707 20.4588 37.9208 20.2057 37.9208C19.9525 37.9208 19.7019 37.9707 19.468 38.0676C19.2341 38.1645 19.0217 38.3065 18.8427 38.4856L17.659 39.6712C17.4799 39.85 17.3378 40.0624 17.2409 40.2962C17.144 40.53 17.0941 40.7806 17.0941 41.0337C17.0941 41.2868 17.144 41.5374 17.2409 41.7712C17.3378 42.005 17.4799 42.2174 17.659 42.3963L18.8449 43.5819C19.0238 43.7609 19.2363 43.9029 19.4702 43.9998C19.704 44.0967 19.9547 44.1466 20.2079 44.1466C20.461 44.1466 20.7117 44.0967 20.9456 43.9998C21.1794 43.9029 21.3919 43.7609 21.5708 43.5819L22.7567 42.3963C23.1179 42.0347 23.3208 41.5447 23.3208 41.0337C23.3208 40.5228 23.1179 40.0327 22.7567 39.6712L28.5821 33.8453C28.8838 34.3564 29.0428 34.9391 29.0426 35.5325V51.1665C28.1566 51.1665 27.3069 51.5184 26.6804 52.1447C26.054 52.771 25.702 53.6204 25.702 54.5061V57.4093C25.702 58.2952 26.0539 59.1449 26.6803 59.7715C27.3067 60.3982 28.1564 60.7505 29.0426 60.7511H31.9487C32.3876 60.7511 32.8222 60.6646 33.2276 60.4967C33.6331 60.3287 34.0014 60.0825 34.3117 59.7722C34.6219 59.4618 34.8679 59.0934 35.0357 58.688C35.2034 58.2825 35.2896 57.848 35.2893 57.4093V54.504C35.2896 54.0653 35.2034 53.6309 35.0356 53.2256C34.8678 52.8203 34.6218 52.452 34.3115 52.1419C34.0013 51.8317 33.6329 51.5857 33.2275 51.418C32.822 51.2503 32.3875 51.1641 31.9487 51.1644V35.5303C31.9482 34.9352 32.108 34.3509 32.4114 33.8388L38.2346 39.6625C37.8734 40.024 37.6706 40.5141 37.6706 41.025C37.6706 41.536 37.8734 42.0261 38.2346 42.3876L39.4205 43.5732C39.5994 43.7522 39.8119 43.8942 40.0458 43.9911C40.2796 44.0881 40.5303 44.1379 40.7835 44.1379C41.0366 44.1379 41.2873 44.0881 41.5211 43.9911C41.755 43.8942 41.9675 43.7522 42.1464 43.5732L43.3323 42.3876C43.5114 42.2087 43.6535 41.9963 43.7504 41.7625C43.8474 41.5287 43.8973 41.2781 43.8973 41.025C43.8973 40.772 43.8474 40.5214 43.7504 40.2876C43.6535 40.0538 43.5114 39.8414 43.3323 39.6625L42.1464 38.4769C41.9675 38.2979 41.755 38.1558 41.5211 38.0589C41.2873 37.962 41.0366 37.9121 40.7835 37.9121C40.5303 37.9121 40.2796 37.962 40.0458 38.0589C39.8119 38.1558 39.5994 38.2979 39.4205 38.4769L33.5951 32.6532C34.1082 32.35 34.6933 32.1902 35.2893 32.1907H50.9127C50.9127 33.0764 51.2646 33.9259 51.8911 34.5522C52.5176 35.1785 53.3673 35.5303 54.2533 35.5303H57.1594C58.0454 35.5303 58.8951 35.1785 59.5216 34.5522C60.148 33.9259 60.5 33.0764 60.5 32.1907V29.2876C60.4994 28.402 60.1473 27.5529 59.5209 26.9267C58.8946 26.3006 58.0452 25.9485 57.1594 25.948Z" fill="white" fill-opacity="0.5" stroke="white" stroke-width="2" mask="url(#path-1-inside-1_616_551)"/>
</svg>
